<svg width="42" height="47" viewBox="0 0 42 47" fill="none" xmlns="http://www.w3.org/2000/svg">
<path d="M37.9855 10.3635L32.7373 4.49048C32.575 4.30827 32.3822 4.16377 32.1698 4.0653C31.9575 3.96682 31.7299 3.91632 31.5 3.91669H10.5C10.2702 3.91632 10.0425 3.96682 9.83017 4.0653C9.61783 4.16377 9.42499 4.30827 9.26275 4.49048L4.0145 10.3635C3.851 10.545 3.72132 10.761 3.633 10.999C3.54468 11.237 3.49948 11.4923 3.5 11.75V37.2084C3.5 39.3684 5.06975 41.125 7 41.125H35C36.9303 41.125 38.5 39.3684 38.5 37.2084V11.75C38.5005 11.4923 38.4553 11.237 38.367 10.999C38.2787 10.761 38.149 10.545 37.9855 10.3635ZM11.2245 7.83336H30.7755L32.5255 9.79169H9.4745L11.2245 7.83336ZM7 37.2084V13.7084H35L35.0035 37.2084H7Z" fill="black"/>
<path d="M24.5 17.625H17.5V23.5H12.25L21 33.2917L29.75 23.5H24.5V17.625Z" fill="black"/>
</svg>
