<svg width="133" height="76" viewBox="0 0 133 76" fill="none" xmlns="http://www.w3.org/2000/svg">
<g clip-path="url(#clip0_561_94)">
<path d="M12.9417 62.7H132.005" stroke="black"/>
<path d="M12.9417 64.98V62.7" stroke="black"/>
<path d="M12.9417 77.0994C12.2996 77.0994 11.7528 76.9246 11.301 76.5752C10.8493 76.2229 10.5042 75.713 10.2655 75.0454C10.0269 74.3749 9.90758 73.5653 9.90758 72.6164C9.90758 71.6732 10.0269 70.8678 10.2655 70.2002C10.507 69.5298 10.8536 69.0184 11.3053 68.6661C11.7599 68.311 12.3053 68.1335 12.9417 68.1335C13.578 68.1335 14.1221 68.311 14.5738 68.6661C15.0283 69.0184 15.3749 69.5298 15.6135 70.2002C15.855 70.8678 15.9758 71.6732 15.9758 72.6164C15.9758 73.5653 15.8564 74.3749 15.6178 75.0454C15.3792 75.713 15.034 76.2229 14.5823 76.5752C14.1306 76.9246 13.5837 77.0994 12.9417 77.0994ZM12.9417 76.1619C13.578 76.1619 14.0724 75.855 14.4246 75.2414C14.7769 74.6278 14.953 73.7528 14.953 72.6164C14.953 71.8607 14.8721 71.2173 14.7101 70.686C14.551 70.1548 14.3209 69.7499 14.0198 69.4715C13.7215 69.1931 13.3621 69.0539 12.9417 69.0539C12.311 69.0539 11.8181 69.365 11.463 69.9871C11.1079 70.6065 10.9303 71.4829 10.9303 72.6164C10.9303 73.3721 11.0099 74.0141 11.1689 74.5425C11.328 75.071 11.5567 75.4729 11.855 75.7485C12.1562 76.0241 12.5184 76.1619 12.9417 76.1619Z" fill="black"/>
<path d="M26.1709 64.98V62.7" stroke="black"/>
<path d="M27.3534 68.2528V76.98H26.2966V69.3607H26.2455L24.1148 70.7755V69.7016L26.2966 68.2528H27.3534Z" fill="black"/>
<path d="M39.4 64.98V62.7" stroke="black"/>
<path d="M36.6706 76.98V76.213L39.5513 73.0596C39.8894 72.6903 40.1678 72.3692 40.3866 72.0965C40.6053 71.821 40.7672 71.5624 40.8723 71.321C40.9803 71.0766 41.0343 70.821 41.0343 70.5539C41.0343 70.2471 40.9604 69.9815 40.8127 69.757C40.6678 69.5326 40.4689 69.3593 40.2161 69.2371C39.9633 69.115 39.6792 69.0539 39.3638 69.0539C39.0286 69.0539 38.736 69.1235 38.486 69.2627C38.2388 69.3991 38.0471 69.5908 37.9107 69.838C37.7772 70.0852 37.7104 70.3749 37.7104 70.7073H36.7047C36.7047 70.196 36.8226 69.7471 37.0584 69.3607C37.2942 68.9744 37.6152 68.6732 38.0215 68.4573C38.4306 68.2414 38.8894 68.1335 39.3979 68.1335C39.9093 68.1335 40.3624 68.2414 40.7573 68.4573C41.1522 68.6732 41.4618 68.9644 41.6863 69.3309C41.9107 69.6974 42.0229 70.105 42.0229 70.5539C42.0229 70.8749 41.9647 71.1888 41.8482 71.4957C41.7346 71.7996 41.5357 72.1391 41.2516 72.5141C40.9704 72.8863 40.5797 73.3408 40.0797 73.8778L38.1195 75.9744V76.0425H42.1763V76.98H36.6706Z" fill="black"/>
<path d="M52.6293 64.98V62.7" stroke="black"/>
<path d="M52.6613 77.0994C52.0988 77.0994 51.5973 77.0028 51.157 76.8096C50.7195 76.6164 50.3715 76.3479 50.113 76.0042C49.8573 75.6576 49.7181 75.2556 49.6953 74.7982H50.7692C50.7919 75.0795 50.8885 75.3224 51.059 75.5269C51.2294 75.7286 51.4524 75.8849 51.728 75.9957C52.0036 76.1065 52.309 76.1619 52.6442 76.1619C53.0192 76.1619 53.3516 76.0965 53.6414 75.9658C53.9311 75.8352 54.1584 75.6533 54.3232 75.4204C54.488 75.1874 54.5703 74.9175 54.5703 74.6107C54.5703 74.2897 54.4908 74.007 54.3317 73.7627C54.1726 73.5156 53.9397 73.3224 53.6328 73.1832C53.326 73.044 52.951 72.9744 52.5078 72.9744H51.809V72.0369H52.5078C52.8544 72.0369 53.1584 71.9744 53.4198 71.8494C53.684 71.7244 53.8899 71.5482 54.0377 71.321C54.1882 71.0937 54.2635 70.8266 54.2635 70.5198C54.2635 70.2244 54.1982 69.9673 54.0675 69.7485C53.9368 69.5298 53.7522 69.3593 53.5135 69.2371C53.2777 69.115 52.9993 69.0539 52.6783 69.0539C52.3772 69.0539 52.0931 69.1093 51.826 69.2201C51.5618 69.3281 51.3459 69.4857 51.1783 69.6931C51.0107 69.8977 50.9198 70.1448 50.9056 70.4346H49.8828C49.8999 69.9772 50.0377 69.5766 50.2962 69.2329C50.5547 68.8863 50.8928 68.6164 51.3104 68.4232C51.7309 68.23 52.1925 68.1335 52.6953 68.1335C53.2351 68.1335 53.6982 68.2428 54.0845 68.4616C54.4709 68.6775 54.7678 68.963 54.9752 69.3181C55.1826 69.6732 55.2863 70.0567 55.2863 70.4687C55.2863 70.9602 55.157 71.3792 54.8985 71.7258C54.6428 72.0724 54.2948 72.3124 53.8544 72.446V72.5141C54.4056 72.605 54.836 72.8394 55.1456 73.2173C55.4553 73.5923 55.6101 74.0567 55.6101 74.6107C55.6101 75.0852 55.4809 75.5113 55.2223 75.8891C54.9667 76.2641 54.6172 76.5596 54.174 76.7755C53.7309 76.9914 53.2266 77.0994 52.6613 77.0994Z" fill="black"/>
<path d="M65.8585 64.98V62.7" stroke="black"/>
<path d="M62.7078 75.1903V74.321L66.543 68.2528H67.1737V69.5994H66.7476L63.8498 74.1846V74.2528H69.0146V75.1903H62.7078ZM66.8157 76.98V74.9261V74.5212V68.2528H67.8214V76.98H66.8157Z" fill="black"/>
<path d="M79.0876 64.98V62.7" stroke="black"/>
<path d="M79.0679 77.0994C78.5679 77.0994 78.1177 76.9999 77.7171 76.8011C77.3165 76.6022 76.9955 76.3295 76.754 75.9829C76.5126 75.6363 76.3804 75.2414 76.3577 74.7982H77.3804C77.4202 75.1931 77.5992 75.5198 77.9174 75.7783C78.2384 76.034 78.6219 76.1619 79.0679 76.1619C79.4259 76.1619 79.7441 76.0781 80.0225 75.9104C80.3037 75.7428 80.5239 75.5127 80.683 75.2201C80.8449 74.9246 80.9259 74.5908 80.9259 74.2187C80.9259 73.838 80.8421 73.4985 80.6745 73.2002C80.5097 72.8991 80.2824 72.6619 79.9927 72.4886C79.7029 72.3153 79.3719 72.2272 78.9998 72.2244C78.7327 72.2215 78.4586 72.2627 78.1773 72.3479C77.8961 72.4303 77.6645 72.5369 77.4827 72.6675L76.4941 72.5482L77.0225 68.2528H81.5566V69.1903H77.9089L77.602 71.7641H77.6532C77.8322 71.6221 78.0566 71.5042 78.3265 71.4104C78.5964 71.3167 78.8776 71.2698 79.1702 71.2698C79.7043 71.2698 80.1802 71.3977 80.5978 71.6533C81.0182 71.9062 81.3478 72.2528 81.5864 72.6931C81.8279 73.1335 81.9486 73.6363 81.9486 74.2016C81.9486 74.7585 81.8236 75.2556 81.5736 75.6931C81.3265 76.1278 80.9856 76.4715 80.5509 76.7244C80.1162 76.9744 79.6219 77.0994 79.0679 77.0994Z" fill="black"/>
<path d="M92.3169 64.98V62.7" stroke="black"/>
<path d="M92.3739 77.0994C92.016 77.0937 91.658 77.0255 91.3 76.8948C90.9421 76.7641 90.6154 76.544 90.3199 76.2343C90.0245 75.9218 89.7873 75.4999 89.6083 74.9687C89.4293 74.4346 89.3398 73.7641 89.3398 72.9573C89.3398 72.1846 89.4123 71.4999 89.5572 70.9033C89.702 70.3039 89.9123 69.7996 90.1878 69.3906C90.4634 68.9786 90.7958 68.6661 91.185 68.4531C91.577 68.24 92.0188 68.1335 92.5103 68.1335C92.9989 68.1335 93.4336 68.2315 93.8143 68.4275C94.1978 68.6207 94.5103 68.8906 94.7518 69.2371C94.9932 69.5837 95.1495 69.9829 95.2205 70.4346H94.1807C94.0841 70.0425 93.8966 69.7173 93.6182 69.4587C93.3398 69.2002 92.9705 69.071 92.5103 69.071C91.8341 69.071 91.3015 69.365 90.9123 69.9531C90.5259 70.5411 90.3313 71.3664 90.3285 72.4289H90.3966C90.5557 72.1874 90.7447 71.9815 90.9634 71.811C91.185 71.6377 91.4293 71.5042 91.6964 71.4104C91.9634 71.3167 92.2461 71.2698 92.5444 71.2698C93.0444 71.2698 93.5018 71.3948 93.9165 71.6448C94.3313 71.892 94.6637 72.2343 94.9137 72.6718C95.1637 73.1065 95.2887 73.605 95.2887 74.1675C95.2887 74.7073 95.1679 75.2016 94.9265 75.6505C94.685 76.0965 94.3455 76.4516 93.908 76.7158C93.4733 76.9772 92.962 77.105 92.3739 77.0994ZM92.3739 76.1619C92.7319 76.1619 93.0529 76.0724 93.337 75.8934C93.6239 75.7144 93.8498 75.4744 94.0145 75.1732C94.1822 74.8721 94.266 74.5369 94.266 74.1675C94.266 73.8067 94.185 73.4786 94.0231 73.1832C93.864 72.8849 93.6438 72.6477 93.3625 72.4715C93.0841 72.2954 92.766 72.2073 92.408 72.2073C92.1381 72.2073 91.8867 72.2613 91.6537 72.3692C91.4208 72.4744 91.2162 72.6192 91.0401 72.8039C90.8668 72.9886 90.7304 73.2002 90.631 73.4388C90.5316 73.6746 90.4819 73.9232 90.4819 74.1846C90.4819 74.5312 90.5628 74.855 90.7248 75.1562C90.8895 75.4573 91.114 75.7002 91.3981 75.8849C91.685 76.0695 92.0103 76.1619 92.3739 76.1619Z" fill="black"/>
<path d="M105.546 64.98V62.7" stroke="black"/>
<path d="M103.294 76.98L107.198 69.2585V69.1903H102.698V68.2528H108.289V69.2414L104.402 76.98H103.294Z" fill="black"/>
<path d="M118.775 64.98V62.7" stroke="black"/>
<path d="M118.777 77.0994C118.192 77.0994 117.675 76.9957 117.226 76.7883C116.78 76.5781 116.432 76.2897 116.182 75.9232C115.932 75.5539 115.808 75.1335 115.811 74.6619C115.808 74.2925 115.881 73.9516 116.028 73.6391C116.176 73.3238 116.378 73.061 116.633 72.8508C116.892 72.6377 117.18 72.5028 117.498 72.446V72.3948C117.081 72.2869 116.748 72.0525 116.501 71.6917C116.254 71.3281 116.132 70.9147 116.135 70.4516C116.132 70.0085 116.244 69.6121 116.471 69.2627C116.699 68.9133 117.011 68.6377 117.409 68.436C117.81 68.2343 118.266 68.1335 118.777 68.1335C119.283 68.1335 119.734 68.2343 120.132 68.436C120.53 68.6377 120.842 68.9133 121.069 69.2627C121.3 69.6121 121.416 70.0085 121.419 70.4516C121.416 70.9147 121.29 71.3281 121.04 71.6917C120.793 72.0525 120.464 72.2869 120.055 72.3948V72.446C120.371 72.5028 120.655 72.6377 120.908 72.8508C121.16 73.061 121.362 73.3238 121.513 73.6391C121.663 73.9516 121.74 74.2925 121.743 74.6619C121.74 75.1335 121.612 75.5539 121.359 75.9232C121.109 76.2897 120.761 76.5781 120.315 76.7883C119.872 76.9957 119.359 77.0994 118.777 77.0994ZM118.777 76.1619C119.172 76.1619 119.513 76.0979 119.8 75.9701C120.087 75.8423 120.308 75.6619 120.464 75.4289C120.621 75.196 120.7 74.9232 120.703 74.6107C120.7 74.2812 120.615 73.99 120.447 73.7371C120.28 73.4843 120.051 73.2854 119.761 73.1406C119.474 72.9957 119.146 72.9232 118.777 72.9232C118.405 72.9232 118.072 72.9957 117.78 73.1406C117.49 73.2854 117.261 73.4843 117.094 73.7371C116.929 73.99 116.848 74.2812 116.851 74.6107C116.848 74.9232 116.923 75.196 117.077 75.4289C117.233 75.6619 117.456 75.8423 117.746 75.9701C118.035 76.0979 118.379 76.1619 118.777 76.1619ZM118.777 72.0198C119.089 72.0198 119.366 71.9573 119.608 71.8323C119.852 71.7073 120.044 71.5326 120.183 71.3082C120.322 71.0837 120.393 70.821 120.396 70.5198C120.393 70.2244 120.324 69.9673 120.187 69.7485C120.051 69.5269 119.862 69.3565 119.621 69.2371C119.379 69.115 119.098 69.0539 118.777 69.0539C118.45 69.0539 118.165 69.115 117.92 69.2371C117.676 69.3565 117.487 69.5269 117.354 69.7485C117.22 69.9673 117.155 70.2244 117.158 70.5198C117.155 70.821 117.221 71.0837 117.358 71.3082C117.497 71.5326 117.689 71.7073 117.933 71.8323C118.177 71.9573 118.459 72.0198 118.777 72.0198Z" fill="black"/>
<path d="M132.005 64.98V62.7" stroke="black"/>
<path d="M131.942 68.1335C132.3 68.1363 132.658 68.2045 133.016 68.338C133.374 68.4715 133.701 68.6931 133.996 69.0028C134.292 69.3096 134.529 69.7286 134.708 70.2599C134.887 70.7911 134.976 71.4573 134.976 72.2585C134.976 73.034 134.902 73.7229 134.755 74.3252C134.61 74.9246 134.4 75.4303 134.124 75.8423C133.851 76.2542 133.519 76.5667 133.127 76.7798C132.738 76.9928 132.297 77.0994 131.806 77.0994C131.317 77.0994 130.881 77.0028 130.498 76.8096C130.117 76.6136 129.804 76.3423 129.56 75.9957C129.319 75.6462 129.164 75.2414 129.096 74.7812H130.135C130.229 75.1817 130.415 75.5127 130.694 75.7741C130.975 76.0326 131.346 76.1619 131.806 76.1619C132.479 76.1619 133.01 75.8678 133.4 75.2798C133.792 74.6917 133.988 73.8607 133.988 72.7869H133.919C133.76 73.0255 133.571 73.2315 133.353 73.4048C133.134 73.5781 132.891 73.7116 132.624 73.8053C132.357 73.8991 132.073 73.946 131.772 73.946C131.272 73.946 130.813 73.8224 130.395 73.5752C129.981 73.3252 129.648 72.9829 129.398 72.5482C129.151 72.1107 129.027 71.6107 129.027 71.0482C129.027 70.5141 129.147 70.0255 129.385 69.5823C129.627 69.1363 129.965 68.7812 130.4 68.517C130.837 68.2528 131.351 68.1249 131.942 68.1335ZM131.942 69.071C131.584 69.071 131.262 69.1604 130.975 69.3394C130.691 69.5156 130.465 69.7542 130.297 70.0553C130.133 70.3536 130.05 70.6846 130.05 71.0482C130.05 71.4119 130.13 71.7428 130.289 72.0411C130.451 72.3366 130.671 72.5724 130.949 72.7485C131.231 72.9218 131.55 73.0085 131.908 73.0085C132.178 73.0085 132.429 72.9559 132.662 72.8508C132.895 72.7428 133.098 72.5965 133.272 72.4119C133.448 72.2244 133.586 72.0127 133.685 71.7769C133.785 71.5383 133.834 71.2897 133.834 71.0312C133.834 70.6903 133.752 70.3707 133.587 70.0724C133.425 69.7741 133.201 69.5326 132.914 69.3479C132.63 69.1633 132.306 69.071 131.942 69.071Z" fill="black"/>
<path d="M12.9417 1.89996V62.7" stroke="black"/>
<path d="M11.7471 62.7H12.9417" stroke="black"/>
<path d="M7.00151 70.2593C6.35946 70.2593 5.81259 70.0846 5.36088 69.7352C4.90918 69.3829 4.56401 68.873 4.32537 68.2054C4.08673 67.5349 3.96741 66.7252 3.96741 65.7764C3.96741 64.8332 4.08673 64.0278 4.32537 63.3602C4.56685 62.6897 4.91344 62.1784 5.36514 61.8261C5.81969 61.471 6.36514 61.2934 7.00151 61.2934C7.63787 61.2934 8.1819 61.471 8.63361 61.8261C9.08815 62.1784 9.43474 62.6897 9.67338 63.3602C9.91486 64.0278 10.0356 64.8332 10.0356 65.7764C10.0356 66.7252 9.91628 67.5349 9.67764 68.2054C9.43901 68.873 9.09384 69.3829 8.64213 69.7352C8.19043 70.0846 7.64355 70.2593 7.00151 70.2593ZM7.00151 69.3218C7.63787 69.3218 8.13219 69.015 8.48446 68.4014C8.83673 67.7877 9.01287 66.9127 9.01287 65.7764C9.01287 65.0207 8.9319 64.3772 8.76997 63.846C8.61088 63.3147 8.38077 62.9099 8.07963 62.6315C7.78134 62.3531 7.42196 62.2139 7.00151 62.2139C6.37082 62.2139 5.87793 62.525 5.52281 63.1471C5.1677 63.7664 4.99014 64.6429 4.99014 65.7764C4.99014 66.5321 5.06969 67.1741 5.22878 67.7025C5.38787 68.2309 5.61656 68.6329 5.91486 68.9085C6.21599 69.184 6.57821 69.3218 7.00151 69.3218Z" fill="black"/>
<path d="M11.7469 47.5H12.9416" stroke="black"/>
<path d="M4.38924 54.94V54.173L7.26993 51.0195C7.60799 50.6502 7.8864 50.3292 8.10515 50.0565C8.3239 49.7809 8.48584 49.5224 8.59095 49.2809C8.6989 49.0366 8.75288 48.7809 8.75288 48.5139C8.75288 48.207 8.67902 47.9414 8.53129 47.717C8.3864 47.4926 8.18754 47.3193 7.9347 47.1971C7.68186 47.0749 7.39777 47.0139 7.08243 47.0139C6.7472 47.0139 6.45459 47.0835 6.20459 47.2227C5.95743 47.359 5.76567 47.5508 5.6293 47.798C5.49578 48.0451 5.42902 48.3349 5.42902 48.6673H4.42334C4.42334 48.1559 4.54123 47.707 4.77703 47.3207C5.01282 46.9343 5.33385 46.6332 5.7401 46.4173C6.14919 46.2014 6.60799 46.0934 7.11652 46.0934C7.62788 46.0934 8.08101 46.2014 8.47589 46.4173C8.87078 46.6332 9.18044 46.9244 9.40487 47.2909C9.6293 47.6573 9.74152 48.065 9.74152 48.5139C9.74152 48.8349 9.68328 49.1488 9.5668 49.4556C9.45317 49.7596 9.2543 50.0991 8.97021 50.4741C8.68896 50.8463 8.29834 51.3008 7.79834 51.8377L5.83811 53.9343V54.0025H9.89493V54.94H4.38924ZM7.08136 70.0593C6.58136 70.0593 6.13108 69.9599 5.73051 69.761C5.32994 69.5622 5.00892 69.2894 4.76744 68.9428C4.52596 68.5963 4.39386 68.2014 4.37113 67.7582H5.39386C5.43363 68.1531 5.61261 68.4798 5.93079 68.7383C6.25182 68.994 6.63534 69.1218 7.08136 69.1218C7.43932 69.1218 7.7575 69.038 8.03591 68.8704C8.31716 68.7028 8.53733 68.4727 8.69642 68.1801C8.85835 67.8846 8.93932 67.5508 8.93932 67.1786C8.93932 66.798 8.85551 66.4585 8.6879 66.1602C8.52312 65.859 8.29585 65.6218 8.00608 65.4485C7.7163 65.2752 7.38534 65.1872 7.01318 65.1843C6.74613 65.1815 6.47199 65.2227 6.19074 65.3079C5.90949 65.3903 5.67795 65.4968 5.49613 65.6275L4.5075 65.5082L5.03591 61.2127H9.57V62.1502H5.92227L5.61545 64.7241H5.66659C5.84557 64.582 6.07 64.4642 6.33988 64.3704C6.60977 64.2767 6.89102 64.2298 7.18363 64.2298C7.71772 64.2298 8.19358 64.3576 8.61119 64.6133C9.03165 64.8661 9.36119 65.2127 9.59983 65.6531C9.8413 66.0934 9.96204 66.5963 9.96204 67.1616C9.96204 67.7184 9.83704 68.2156 9.58704 68.6531C9.33988 69.0877 8.99897 69.4315 8.56432 69.6843C8.12966 69.9343 7.63534 70.0593 7.08136 70.0593ZM7.00146 85.0593C6.35942 85.0593 5.81254 84.8846 5.36084 84.5352C4.90913 84.1829 4.56396 83.673 4.32532 83.0053C4.08669 82.3349 3.96737 81.5252 3.96737 80.5764C3.96737 79.6332 4.08669 78.8278 4.32532 78.1602C4.5668 77.4897 4.91339 76.9784 5.3651 76.6261C5.81964 76.271 6.3651 76.0934 7.00146 76.0934C7.63782 76.0934 8.18186 76.271 8.63356 76.6261C9.08811 76.9784 9.4347 77.4897 9.67334 78.1602C9.91481 78.8278 10.0356 79.6332 10.0356 80.5764C10.0356 81.5252 9.91623 82.3349 9.6776 83.0053C9.43896 83.673 9.09379 84.1829 8.64209 84.5352C8.19038 84.8846 7.64351 85.0593 7.00146 85.0593ZM7.00146 84.1218C7.63782 84.1218 8.13214 83.815 8.48442 83.2014C8.83669 82.5877 9.01282 81.7127 9.01282 80.5764C9.01282 79.8207 8.93186 79.1772 8.76993 78.646C8.61084 78.1147 8.38072 77.7099 8.07959 77.4315C7.78129 77.1531 7.42192 77.0139 7.00146 77.0139C6.37078 77.0139 5.87788 77.3249 5.52277 77.9471C5.16765 78.5664 4.9901 79.4428 4.9901 80.5764C4.9901 81.332 5.06964 81.9741 5.22873 82.5025C5.38782 83.0309 5.61652 83.4329 5.91481 83.7085C6.21595 83.984 6.57817 84.1218 7.00146 84.1218Z" fill="black"/>
<path d="M11.7469 32.3H12.9416" stroke="black"/>
<path d="M7.08136 39.8593C6.58136 39.8593 6.13108 39.7599 5.73051 39.561C5.32994 39.3621 5.00892 39.0894 4.76744 38.7428C4.52596 38.3962 4.39386 38.0014 4.37113 37.5582H5.39386C5.43363 37.9531 5.61261 38.2798 5.93079 38.5383C6.25182 38.794 6.63534 38.9218 7.08136 38.9218C7.43932 38.9218 7.7575 38.838 8.03591 38.6704C8.31716 38.5028 8.53733 38.2727 8.69642 37.98C8.85835 37.6846 8.93932 37.3508 8.93932 36.9786C8.93932 36.5979 8.85551 36.2585 8.6879 35.9602C8.52312 35.659 8.29585 35.4218 8.00608 35.2485C7.7163 35.0752 7.38534 34.9871 7.01318 34.9843C6.74613 34.9815 6.47199 35.0227 6.19074 35.1079C5.90949 35.1903 5.67795 35.2968 5.49613 35.4275L4.5075 35.3082L5.03591 31.0127H9.57V31.9502H5.92227L5.61545 34.5241H5.66659C5.84557 34.382 6.07 34.2641 6.33988 34.1704C6.60977 34.0766 6.89102 34.0298 7.18363 34.0298C7.71772 34.0298 8.19358 34.1576 8.61119 34.4133C9.03165 34.6661 9.36119 35.0127 9.59983 35.4531C9.8413 35.8934 9.96204 36.3962 9.96204 36.9616C9.96204 37.5184 9.83704 38.0156 9.58704 38.4531C9.33988 38.8877 8.99897 39.2315 8.56432 39.4843C8.12966 39.7343 7.63534 39.8593 7.08136 39.8593ZM7.00146 54.8593C6.35942 54.8593 5.81254 54.6846 5.36084 54.3352C4.90913 53.9829 4.56396 53.4729 4.32532 52.8053C4.08669 52.1349 3.96737 51.3252 3.96737 50.3764C3.96737 49.4332 4.08669 48.6278 4.32532 47.9602C4.5668 47.2897 4.91339 46.7783 5.3651 46.4261C5.81964 46.071 6.3651 45.8934 7.00146 45.8934C7.63782 45.8934 8.18186 46.071 8.63356 46.4261C9.08811 46.7783 9.4347 47.2897 9.67334 47.9602C9.91481 48.6278 10.0356 49.4332 10.0356 50.3764C10.0356 51.3252 9.91623 52.1349 9.6776 52.8053C9.43896 53.4729 9.09379 53.9829 8.64209 54.3352C8.19038 54.6846 7.64351 54.8593 7.00146 54.8593ZM7.00146 53.9218C7.63782 53.9218 8.13214 53.615 8.48442 53.0014C8.83669 52.3877 9.01282 51.5127 9.01282 50.3764C9.01282 49.6207 8.93186 48.9772 8.76993 48.446C8.61084 47.9147 8.38072 47.5099 8.07959 47.2315C7.78129 46.9531 7.42192 46.8139 7.00146 46.8139C6.37078 46.8139 5.87788 47.1249 5.52277 47.7471C5.16765 48.3664 4.9901 49.2428 4.9901 50.3764C4.9901 51.132 5.06964 51.7741 5.22873 52.3025C5.38782 52.8309 5.61652 53.2329 5.91481 53.5085C6.21595 53.784 6.57817 53.9218 7.00146 53.9218ZM7.00146 69.8593C6.35942 69.8593 5.81254 69.6846 5.36084 69.3352C4.90913 68.9829 4.56396 68.4729 4.32532 67.8053C4.08669 67.1349 3.96737 66.3252 3.96737 65.3764C3.96737 64.4332 4.08669 63.6278 4.32532 62.9602C4.5668 62.2897 4.91339 61.7783 5.3651 61.4261C5.81964 61.071 6.3651 60.8934 7.00146 60.8934C7.63782 60.8934 8.18186 61.071 8.63356 61.4261C9.08811 61.7783 9.4347 62.2897 9.67334 62.9602C9.91481 63.6278 10.0356 64.4332 10.0356 65.3764C10.0356 66.3252 9.91623 67.1349 9.6776 67.8053C9.43896 68.4729 9.09379 68.9829 8.64209 69.3352C8.19038 69.6846 7.64351 69.8593 7.00146 69.8593ZM7.00146 68.9218C7.63782 68.9218 8.13214 68.615 8.48442 68.0014C8.83669 67.3877 9.01282 66.5127 9.01282 65.3764C9.01282 64.6207 8.93186 63.9772 8.76993 63.446C8.61084 62.9147 8.38072 62.5099 8.07959 62.2315C7.78129 61.9531 7.42192 61.8139 7.00146 61.8139C6.37078 61.8139 5.87788 62.1249 5.52277 62.7471C5.16765 63.3664 4.9901 64.2428 4.9901 65.3764C4.9901 66.132 5.06964 66.7741 5.22873 67.3025C5.38782 67.8309 5.61652 68.2329 5.91481 68.5085C6.21595 68.784 6.57817 68.9218 7.00146 68.9218Z" fill="black"/>
<path d="M11.7469 17.1H12.9416" stroke="black"/>
<path d="M5.18931 24.54L9.09272 16.8184V16.7502H4.59272V15.8127H10.1836V16.8013L6.29727 24.54H5.18931ZM7.08136 39.6593C6.58136 39.6593 6.13107 39.5599 5.7305 39.361C5.32994 39.1621 5.00891 38.8894 4.76744 38.5428C4.52596 38.1962 4.39386 37.8013 4.37113 37.3582H5.39386C5.43363 37.753 5.61261 38.0798 5.93079 38.3383C6.25181 38.594 6.63533 38.7218 7.08136 38.7218C7.43931 38.7218 7.75749 38.638 8.0359 38.4704C8.31715 38.3028 8.53732 38.0726 8.69641 37.78C8.85834 37.4846 8.93931 37.1508 8.93931 36.7786C8.93931 36.3979 8.8555 36.0584 8.68789 35.7601C8.52312 35.459 8.29584 35.2218 8.00607 35.0485C7.7163 34.8752 7.38533 34.7871 7.01317 34.7843C6.74613 34.7815 6.47198 34.8226 6.19073 34.9079C5.90948 34.9903 5.67795 35.0968 5.49613 35.2275L4.50749 35.1082L5.0359 30.8127H9.56999V31.7502H5.92227L5.61545 34.3241H5.66658C5.84556 34.182 6.06999 34.0641 6.33988 33.9704C6.60976 33.8766 6.89102 33.8298 7.18363 33.8298C7.71772 33.8298 8.19357 33.9576 8.61119 34.2133C9.03164 34.4661 9.36119 34.8127 9.59982 35.253C9.8413 35.6934 9.96204 36.1962 9.96204 36.7616C9.96204 37.3184 9.83704 37.8155 9.58704 38.253C9.33988 38.6877 8.99897 39.0315 8.56431 39.2843C8.12965 39.5343 7.63533 39.6593 7.08136 39.6593ZM7.00146 54.6593C6.35941 54.6593 5.81253 54.4846 5.36083 54.1351C4.90913 53.7829 4.56396 53.2729 4.32532 52.6053C4.08668 51.9349 3.96736 51.1252 3.96736 50.1763C3.96736 49.2332 4.08668 48.4278 4.32532 47.7601C4.5668 47.0897 4.91339 46.5783 5.36509 46.2261C5.81964 45.8709 6.36509 45.6934 7.00146 45.6934C7.63782 45.6934 8.18185 45.8709 8.63356 46.2261C9.0881 46.5783 9.43469 47.0897 9.67333 47.7601C9.91481 48.4278 10.0355 49.2332 10.0355 50.1763C10.0355 51.1252 9.91623 51.9349 9.67759 52.6053C9.43896 53.2729 9.09378 53.7829 8.64208 54.1351C8.19038 54.4846 7.6435 54.6593 7.00146 54.6593ZM7.00146 53.7218C7.63782 53.7218 8.13214 53.415 8.48441 52.8013C8.83668 52.1877 9.01282 51.3127 9.01282 50.1763C9.01282 49.4207 8.93185 48.7772 8.76992 48.2459C8.61083 47.7147 8.38072 47.3099 8.07958 47.0315C7.78129 46.753 7.42191 46.6138 7.00146 46.6138C6.37077 46.6138 5.87788 46.9249 5.52276 47.5471C5.16765 48.1664 4.99009 49.0428 4.99009 50.1763C4.99009 50.932 5.06964 51.5741 5.22873 52.1025C5.38782 52.6309 5.61651 53.0329 5.91481 53.3084C6.21594 53.584 6.57816 53.7218 7.00146 53.7218Z" fill="black"/>
<path d="M11.7469 1.89996H12.9416" stroke="black"/>
<path d="M9.14496 2.20693V10.9342H8.08814V3.31489H8.037L5.90632 4.72966V3.65579L8.08814 2.20693H9.14496ZM7.00149 26.0535C6.35945 26.0535 5.81257 25.8788 5.36087 25.5294C4.90916 25.1771 4.56399 24.6672 4.32536 23.9995C4.08672 23.3291 3.9674 22.5194 3.9674 21.5706C3.9674 20.6274 4.08672 19.822 4.32536 19.1544C4.56683 18.4839 4.91342 17.9726 5.36513 17.6203C5.81967 17.2652 6.36513 17.0876 7.00149 17.0876C7.63786 17.0876 8.18189 17.2652 8.63359 17.6203C9.08814 17.9726 9.43473 18.4839 9.67337 19.1544C9.91484 19.822 10.0356 20.6274 10.0356 21.5706C10.0356 22.5194 9.91626 23.3291 9.67763 23.9995C9.43899 24.6672 9.09382 25.1771 8.64212 25.5294C8.19041 25.8788 7.64354 26.0535 7.00149 26.0535ZM7.00149 25.116C7.63786 25.116 8.13217 24.8092 8.48445 24.1956C8.83672 23.5819 9.01286 22.7069 9.01286 21.5706C9.01286 20.8149 8.93189 20.1714 8.76996 19.6402C8.61087 19.1089 8.38075 18.7041 8.07962 18.4257C7.78132 18.1473 7.42195 18.0081 7.00149 18.0081C6.37081 18.0081 5.87791 18.3191 5.5228 18.9413C5.16768 19.5606 4.99013 20.437 4.99013 21.5706C4.99013 22.3262 5.06967 22.9683 5.22876 23.4967C5.38786 24.0251 5.61655 24.4271 5.91484 24.7027C6.21598 24.9782 6.5782 25.116 7.00149 25.116ZM7.00149 41.0535C6.35945 41.0535 5.81257 40.8788 5.36087 40.5294C4.90916 40.1771 4.56399 39.6672 4.32536 38.9995C4.08672 38.3291 3.9674 37.5194 3.9674 36.5706C3.9674 35.6274 4.08672 34.822 4.32536 34.1544C4.56683 33.4839 4.91342 32.9726 5.36513 32.6203C5.81967 32.2652 6.36513 32.0876 7.00149 32.0876C7.63786 32.0876 8.18189 32.2652 8.63359 32.6203C9.08814 32.9726 9.43473 33.4839 9.67337 34.1544C9.91484 34.822 10.0356 35.6274 10.0356 36.5706C10.0356 37.5194 9.91626 38.3291 9.67763 38.9995C9.43899 39.6672 9.09382 40.1771 8.64212 40.5294C8.19041 40.8788 7.64354 41.0535 7.00149 41.0535ZM7.00149 40.116C7.63786 40.116 8.13217 39.8092 8.48445 39.1956C8.83672 38.5819 9.01286 37.7069 9.01286 36.5706C9.01286 35.8149 8.93189 35.1714 8.76996 34.6402C8.61087 34.1089 8.38075 33.7041 8.07962 33.4257C7.78132 33.1473 7.42195 33.0081 7.00149 33.0081C6.37081 33.0081 5.87791 33.3191 5.5228 33.9413C5.16768 34.5606 4.99013 35.437 4.99013 36.5706C4.99013 37.3262 5.06967 37.9683 5.22876 38.4967C5.38786 39.0251 5.61655 39.4271 5.91484 39.7027C6.21598 39.9782 6.5782 40.116 7.00149 40.116ZM7.00149 56.0535C6.35945 56.0535 5.81257 55.8788 5.36087 55.5294C4.90916 55.1771 4.56399 54.6672 4.32536 53.9995C4.08672 53.3291 3.9674 52.5194 3.9674 51.5706C3.9674 50.6274 4.08672 49.822 4.32536 49.1544C4.56683 48.4839 4.91342 47.9726 5.36513 47.6203C5.81967 47.2652 6.36513 47.0876 7.00149 47.0876C7.63786 47.0876 8.18189 47.2652 8.63359 47.6203C9.08814 47.9726 9.43473 48.4839 9.67337 49.1544C9.91484 49.822 10.0356 50.6274 10.0356 51.5706C10.0356 52.5194 9.91626 53.3291 9.67763 53.9995C9.43899 54.6672 9.09382 55.1771 8.64212 55.5294C8.19041 55.8788 7.64354 56.0535 7.00149 56.0535ZM7.00149 55.116C7.63786 55.116 8.13217 54.8092 8.48445 54.1956C8.83672 53.5819 9.01286 52.7069 9.01286 51.5706C9.01286 50.8149 8.93189 50.1714 8.76996 49.6402C8.61087 49.1089 8.38075 48.7041 8.07962 48.4257C7.78132 48.1473 7.42195 48.0081 7.00149 48.0081C6.37081 48.0081 5.87791 48.3191 5.5228 48.9413C5.16768 49.5606 4.99013 50.437 4.99013 51.5706C4.99013 52.3262 5.06967 52.9683 5.22876 53.4967C5.38786 54.0251 5.61655 54.4271 5.91484 54.7027C6.21598 54.9782 6.5782 55.116 7.00149 55.116Z" fill="black"/>
<path d="M12.9417 62.7H132.005" stroke="#CCCCCC"/>
<path d="M12.9417 47.5H132.005" stroke="#CCCCCC"/>
<path d="M12.9417 32.3H132.005" stroke="#CCCCCC"/>
<path d="M12.9417 17.1H132.005" stroke="#CCCCCC"/>
<path d="M12.9417 1.90002H132.005" stroke="#CCCCCC"/>
<path d="M12.9417 1.90002V62.7" stroke="#CCCCCC"/>
<path d="M26.1709 1.90002V62.7" stroke="#CCCCCC"/>
<path d="M39.4 1.90002V62.7" stroke="#CCCCCC"/>
<path d="M52.6293 1.90002V62.7" stroke="#CCCCCC"/>
<path d="M65.8585 1.90002V62.7" stroke="#CCCCCC"/>
<path d="M79.0876 1.90002V62.7" stroke="#CCCCCC"/>
<path d="M92.3169 1.90002V62.7" stroke="#CCCCCC"/>
<path d="M105.546 1.90002V62.7" stroke="#CCCCCC"/>
<path d="M118.775 1.90002V62.7" stroke="#CCCCCC"/>
<path d="M132.005 1.90002V62.7" stroke="#CCCCCC"/>
<path d="M12.9417 45.4328L26.1709 14.7288L39.4001 51.3912L52.6293 43.1832L65.8585 59.8424L79.0877 60.7544L92.3169 27.74L105.546 23.2408L118.775 57.8968L132.005 4.63599V62.7H118.775H105.546H92.3169H79.0877H65.8585H52.6293H39.4001H26.1709H12.9417V45.4328Z" fill="#E8F134" fill-opacity="0.6"/>
<path d="M12.9417 46.5728C13.2715 46.5728 13.539 46.0624 13.539 45.4328C13.539 44.8032 13.2715 44.2928 12.9417 44.2928C12.6118 44.2928 12.3444 44.8032 12.3444 45.4328C12.3444 46.0624 12.6118 46.5728 12.9417 46.5728Z" fill="#E8F134" fill-opacity="0.6"/>
<path d="M26.1709 15.8687C26.5008 15.8687 26.7682 15.3584 26.7682 14.7287C26.7682 14.0991 26.5008 13.5887 26.1709 13.5887C25.841 13.5887 25.5736 14.0991 25.5736 14.7287C25.5736 15.3584 25.841 15.8687 26.1709 15.8687Z" fill="#E8F134" fill-opacity="0.6"/>
<path d="M39.4 52.5312C39.7299 52.5312 39.9973 52.0208 39.9973 51.3912C39.9973 50.7616 39.7299 50.2512 39.4 50.2512C39.0702 50.2512 38.8027 50.7616 38.8027 51.3912C38.8027 52.0208 39.0702 52.5312 39.4 52.5312Z" fill="#E8F134" fill-opacity="0.6"/>
<path d="M52.6293 44.3231C52.9592 44.3231 53.2266 43.8128 53.2266 43.1831C53.2266 42.5535 52.9592 42.0432 52.6293 42.0432C52.2994 42.0432 52.032 42.5535 52.032 43.1831C52.032 43.8128 52.2994 44.3231 52.6293 44.3231Z" fill="#E8F134" fill-opacity="0.6"/>
<path d="M65.8585 60.9824C66.1884 60.9824 66.4558 60.472 66.4558 59.8424C66.4558 59.2128 66.1884 58.7024 65.8585 58.7024C65.5287 58.7024 65.2612 59.2128 65.2612 59.8424C65.2612 60.472 65.5287 60.9824 65.8585 60.9824Z" fill="#E8F134" fill-opacity="0.6"/>
<path d="M79.0877 61.8944C79.4175 61.8944 79.685 61.384 79.685 60.7544C79.685 60.1248 79.4175 59.6144 79.0877 59.6144C78.7578 59.6144 78.4904 60.1248 78.4904 60.7544C78.4904 61.384 78.7578 61.8944 79.0877 61.8944Z" fill="#E8F134" fill-opacity="0.6"/>
<path d="M92.3169 28.88C92.6468 28.88 92.9142 28.3696 92.9142 27.74C92.9142 27.1104 92.6468 26.6 92.3169 26.6C91.987 26.6 91.7196 27.1104 91.7196 27.74C91.7196 28.3696 91.987 28.88 92.3169 28.88Z" fill="#E8F134" fill-opacity="0.6"/>
<path d="M105.546 24.3808C105.876 24.3808 106.143 23.8704 106.143 23.2408C106.143 22.6112 105.876 22.1008 105.546 22.1008C105.216 22.1008 104.949 22.6112 104.949 23.2408C104.949 23.8704 105.216 24.3808 105.546 24.3808Z" fill="#E8F134" fill-opacity="0.6"/>
<path d="M118.775 59.0368C119.105 59.0368 119.373 58.5264 119.373 57.8968C119.373 57.2672 119.105 56.7568 118.775 56.7568C118.445 56.7568 118.178 57.2672 118.178 57.8968C118.178 58.5264 118.445 59.0368 118.775 59.0368Z" fill="#E8F134" fill-opacity="0.6"/>
<path d="M132.005 5.77597C132.334 5.77597 132.602 5.26558 132.602 4.63597C132.602 4.00637 132.334 3.49597 132.005 3.49597C131.675 3.49597 131.407 4.00637 131.407 4.63597C131.407 5.26558 131.675 5.77597 132.005 5.77597Z" fill="#E8F134" fill-opacity="0.6"/>
<path d="M12.9417 53.3368L26.1709 52.4856L39.4001 55.708L52.6293 46.7096L65.8585 11.5064L79.0877 6.03441L92.3169 5.30481L105.546 32.6648L118.775 44.7032L132.005 59.1128V62.7H118.775H105.546H92.3169H79.0877H65.8585H52.6293H39.4001H26.1709H12.9417V53.3368Z" fill="#0F4495" fill-opacity="0.6"/>
<path d="M12.9417 54.4768C13.2715 54.4768 13.539 53.9664 13.539 53.3368C13.539 52.7072 13.2715 52.1968 12.9417 52.1968C12.6118 52.1968 12.3444 52.7072 12.3444 53.3368C12.3444 53.9664 12.6118 54.4768 12.9417 54.4768Z" fill="#0F4495" fill-opacity="0.6"/>
<path d="M26.1709 53.6256C26.5008 53.6256 26.7682 53.1152 26.7682 52.4856C26.7682 51.856 26.5008 51.3456 26.1709 51.3456C25.841 51.3456 25.5736 51.856 25.5736 52.4856C25.5736 53.1152 25.841 53.6256 26.1709 53.6256Z" fill="#0F4495" fill-opacity="0.6"/>
<path d="M39.4 56.848C39.7299 56.848 39.9973 56.3376 39.9973 55.708C39.9973 55.0784 39.7299 54.568 39.4 54.568C39.0702 54.568 38.8027 55.0784 38.8027 55.708C38.8027 56.3376 39.0702 56.848 39.4 56.848Z" fill="#0F4495" fill-opacity="0.6"/>
<path d="M52.6293 47.8496C52.9592 47.8496 53.2266 47.3392 53.2266 46.7096C53.2266 46.08 52.9592 45.5696 52.6293 45.5696C52.2994 45.5696 52.032 46.08 52.032 46.7096C52.032 47.3392 52.2994 47.8496 52.6293 47.8496Z" fill="#0F4495" fill-opacity="0.6"/>
<path d="M65.8585 12.6464C66.1884 12.6464 66.4558 12.136 66.4558 11.5064C66.4558 10.8768 66.1884 10.3664 65.8585 10.3664C65.5287 10.3664 65.2612 10.8768 65.2612 11.5064C65.2612 12.136 65.5287 12.6464 65.8585 12.6464Z" fill="#0F4495" fill-opacity="0.6"/>
<path d="M79.0877 7.17441C79.4175 7.17441 79.685 6.66401 79.685 6.03441C79.685 5.4048 79.4175 4.89441 79.0877 4.89441C78.7578 4.89441 78.4904 5.4048 78.4904 6.03441C78.4904 6.66401 78.7578 7.17441 79.0877 7.17441Z" fill="#0F4495" fill-opacity="0.6"/>
<path d="M92.3169 6.44479C92.6468 6.44479 92.9142 5.9344 92.9142 5.3048C92.9142 4.67519 92.6468 4.16479 92.3169 4.16479C91.987 4.16479 91.7196 4.67519 91.7196 5.3048C91.7196 5.9344 91.987 6.44479 92.3169 6.44479Z" fill="#0F4495" fill-opacity="0.6"/>
<path d="M105.546 33.8048C105.876 33.8048 106.143 33.2944 106.143 32.6648C106.143 32.0352 105.876 31.5248 105.546 31.5248C105.216 31.5248 104.949 32.0352 104.949 32.6648C104.949 33.2944 105.216 33.8048 105.546 33.8048Z" fill="#0F4495" fill-opacity="0.6"/>
<path d="M118.775 45.8432C119.105 45.8432 119.373 45.3328 119.373 44.7032C119.373 44.0736 119.105 43.5632 118.775 43.5632C118.445 43.5632 118.178 44.0736 118.178 44.7032C118.178 45.3328 118.445 45.8432 118.775 45.8432Z" fill="#0F4495" fill-opacity="0.6"/>
<path d="M132.005 60.2528C132.334 60.2528 132.602 59.7424 132.602 59.1128C132.602 58.4832 132.334 57.9728 132.005 57.9728C131.675 57.9728 131.407 58.4832 131.407 59.1128C131.407 59.7424 131.675 60.2528 132.005 60.2528Z" fill="#0F4495" fill-opacity="0.6"/>
</g>
<defs>
<clipPath id="clip0_561_94">
<rect width="133" height="76" fill="white"/>
</clipPath>
</defs>
</svg>
