<svg width="200" height="78" viewBox="0 0 200 78" fill="none" xmlns="http://www.w3.org/2000/svg">
<g clip-path="url(#clip0_561_286)">
<path d="M19.4611 64.35H198.503" stroke="black"/>
<path d="M19.4611 66.69V64.35" stroke="black"/>
<path d="M19.4611 78.8093C18.819 78.8093 18.2722 78.6346 17.8205 78.2852C17.3688 77.9329 17.0236 77.423 16.785 76.7553C16.5463 76.0849 16.427 75.2752 16.427 74.3264C16.427 73.3832 16.5463 72.5778 16.785 71.9102C17.0264 71.2397 17.373 70.7284 17.8247 70.3761C18.2793 70.021 18.8247 69.8434 19.4611 69.8434C20.0975 69.8434 20.6415 70.021 21.0932 70.3761C21.5477 70.7284 21.8943 71.2397 22.133 71.9102C22.3744 72.5778 22.4952 73.3832 22.4952 74.3264C22.4952 75.2752 22.3759 76.0849 22.1372 76.7553C21.8986 77.423 21.5534 77.9329 21.1017 78.2852C20.65 78.6346 20.1031 78.8093 19.4611 78.8093ZM19.4611 77.8718C20.0975 77.8718 20.5918 77.565 20.944 76.9514C21.2963 76.3377 21.4725 75.4627 21.4725 74.3264C21.4725 73.5707 21.3915 72.9272 21.2296 72.396C21.0705 71.8647 20.8404 71.4599 20.5392 71.1815C20.2409 70.9031 19.8815 70.7639 19.4611 70.7639C18.8304 70.7639 18.3375 71.0749 17.9824 71.6971C17.6273 72.3164 17.4497 73.1928 17.4497 74.3264C17.4497 75.082 17.5293 75.7241 17.6884 76.2525C17.8475 76.7809 18.0761 77.1829 18.3744 77.4585C18.6756 77.734 19.0378 77.8718 19.4611 77.8718Z" fill="black"/>
<path d="M39.3546 66.69V64.35" stroke="black"/>
<path d="M40.5372 69.9627V78.69H39.4803V71.0707H39.4292L37.2985 72.4855V71.4116L39.4803 69.9627H40.5372Z" fill="black"/>
<path d="M59.2482 66.69V64.35" stroke="black"/>
<path d="M56.5187 78.69V77.923L59.3994 74.7695C59.7375 74.4002 60.0159 74.0792 60.2347 73.8065C60.4534 73.5309 60.6153 73.2724 60.7204 73.0309C60.8284 72.7866 60.8824 72.5309 60.8824 72.2639C60.8824 71.957 60.8085 71.6914 60.6608 71.467C60.5159 71.2426 60.317 71.0693 60.0642 70.9471C59.8114 70.8249 59.5273 70.7639 59.2119 70.7639C58.8767 70.7639 58.5841 70.8335 58.3341 70.9727C58.0869 71.109 57.8952 71.3008 57.7588 71.548C57.6253 71.7951 57.5585 72.0849 57.5585 72.4173H56.5528C56.5528 71.9059 56.6707 71.457 56.9065 71.0707C57.1423 70.6843 57.4633 70.3832 57.8696 70.1673C58.2787 69.9514 58.7375 69.8434 59.246 69.8434C59.7574 69.8434 60.2105 69.9514 60.6054 70.1673C61.0003 70.3832 61.3099 70.6744 61.5344 71.0409C61.7588 71.4073 61.871 71.815 61.871 72.2639C61.871 72.5849 61.8128 72.8988 61.6963 73.2056C61.5827 73.5096 61.3838 73.8491 61.0997 74.2241C60.8185 74.5963 60.4278 75.0508 59.9278 75.5877L57.9676 77.6843V77.7525H62.0244V78.69H56.5187Z" fill="black"/>
<path d="M79.1417 66.69V64.35" stroke="black"/>
<path d="M79.1737 78.8093C78.6112 78.8093 78.1098 78.7127 77.6695 78.5195C77.232 78.3264 76.8839 78.0579 76.6254 77.7142C76.3697 77.3676 76.2305 76.9656 76.2078 76.5082H77.2817C77.3044 76.7894 77.401 77.0323 77.5714 77.2369C77.7419 77.4386 77.9649 77.5948 78.2405 77.7056C78.516 77.8164 78.8214 77.8718 79.1567 77.8718C79.5317 77.8718 79.8641 77.8065 80.1538 77.6758C80.4436 77.5451 80.6709 77.3633 80.8357 77.1303C81.0004 76.8974 81.0828 76.6275 81.0828 76.3207C81.0828 75.9997 81.0033 75.717 80.8442 75.4727C80.6851 75.2255 80.4521 75.0323 80.1453 74.8931C79.8385 74.7539 79.4635 74.6843 79.0203 74.6843H78.3214V73.7468H79.0203C79.3669 73.7468 79.6709 73.6843 79.9322 73.5593C80.1964 73.4343 80.4024 73.2582 80.5501 73.0309C80.7007 72.8036 80.776 72.5366 80.776 72.2298C80.776 71.9343 80.7107 71.6772 80.58 71.4585C80.4493 71.2397 80.2646 71.0693 80.026 70.9471C79.7902 70.8249 79.5118 70.7639 79.1908 70.7639C78.8896 70.7639 78.6055 70.8193 78.3385 70.9301C78.0743 71.038 77.8584 71.1957 77.6908 71.4031C77.5232 71.6076 77.4322 71.8548 77.418 72.1445H76.3953C76.4124 71.6872 76.5501 71.2866 76.8087 70.9428C77.0672 70.5963 77.4053 70.3264 77.8229 70.1332C78.2433 69.94 78.705 69.8434 79.2078 69.8434C79.7476 69.8434 80.2107 69.9528 80.597 70.1715C80.9834 70.3874 81.2803 70.673 81.4876 71.0281C81.695 71.3832 81.7987 71.7667 81.7987 72.1786C81.7987 72.6701 81.6695 73.0891 81.4109 73.4357C81.1553 73.7823 80.8072 74.0224 80.3669 74.1559V74.2241C80.918 74.315 81.3484 74.5494 81.6581 74.9272C81.9678 75.3022 82.1226 75.7667 82.1226 76.3207C82.1226 76.7951 81.9933 77.2213 81.7348 77.5991C81.4791 77.9741 81.1297 78.2695 80.6865 78.4855C80.2433 78.7014 79.7391 78.8093 79.1737 78.8093Z" fill="black"/>
<path d="M99.0353 66.69V64.35" stroke="black"/>
<path d="M95.8845 76.9002V76.0309L99.7197 69.9627H100.35V71.3093H99.9243L97.0266 75.8945V75.9627H102.191V76.9002H95.8845ZM99.9925 78.69V76.636V76.2312V69.9627H100.998V78.69H99.9925Z" fill="black"/>
<path d="M118.929 66.69V64.35" stroke="black"/>
<path d="M118.909 78.8093C118.409 78.8093 117.959 78.7099 117.558 78.511C117.158 78.3122 116.837 78.0394 116.595 77.6928C116.354 77.3463 116.222 76.9514 116.199 76.5082H117.222C117.261 76.9031 117.44 77.2298 117.759 77.4883C118.08 77.744 118.463 77.8718 118.909 77.8718C119.267 77.8718 119.585 77.788 119.864 77.6204C120.145 77.4528 120.365 77.2227 120.524 76.9301C120.686 76.6346 120.767 76.3008 120.767 75.9286C120.767 75.548 120.683 75.2085 120.516 74.9102C120.351 74.609 120.124 74.3718 119.834 74.1985C119.544 74.0252 119.213 73.9372 118.841 73.9343C118.574 73.9315 118.3 73.9727 118.019 74.0579C117.737 74.1403 117.506 74.2468 117.324 74.3775L116.335 74.2582L116.864 69.9627H121.398V70.9002H117.75L117.443 73.4741H117.494C117.673 73.332 117.898 73.2142 118.168 73.1204C118.438 73.0267 118.719 72.9798 119.011 72.9798C119.546 72.9798 120.021 73.1076 120.439 73.3633C120.859 73.6161 121.189 73.9627 121.428 74.4031C121.669 74.8434 121.79 75.3463 121.79 75.9116C121.79 76.4684 121.665 76.9656 121.415 77.4031C121.168 77.8377 120.827 78.1815 120.392 78.4343C119.957 78.6843 119.463 78.8093 118.909 78.8093Z" fill="black"/>
<path d="M138.822 66.69V64.35" stroke="black"/>
<path d="M138.879 78.8093C138.521 78.8036 138.163 78.7355 137.806 78.6048C137.448 78.4741 137.121 78.2539 136.825 77.9443C136.53 77.6318 136.293 77.2099 136.114 76.6786C135.935 76.1445 135.845 75.4741 135.845 74.6673C135.845 73.8945 135.918 73.2099 136.063 72.6133C136.207 72.0139 136.418 71.5096 136.693 71.1005C136.969 70.6886 137.301 70.3761 137.69 70.163C138.082 69.9499 138.524 69.8434 139.016 69.8434C139.504 69.8434 139.939 69.9414 140.32 70.1374C140.703 70.3306 141.016 70.6005 141.257 70.9471C141.499 71.2937 141.655 71.6928 141.726 72.1445H140.686C140.59 71.7525 140.402 71.4272 140.124 71.1687C139.845 70.9102 139.476 70.7809 139.016 70.7809C138.34 70.7809 137.807 71.0749 137.418 71.663C137.031 72.2511 136.837 73.0764 136.834 74.1389H136.902C137.061 73.8974 137.25 73.6914 137.469 73.521C137.69 73.3477 137.935 73.2142 138.202 73.1204C138.469 73.0267 138.752 72.9798 139.05 72.9798C139.55 72.9798 140.007 73.1048 140.422 73.3548C140.837 73.6019 141.169 73.9443 141.419 74.3818C141.669 74.8164 141.794 75.315 141.794 75.8775C141.794 76.4173 141.673 76.9116 141.432 77.3605C141.19 77.8065 140.851 78.1616 140.413 78.4258C139.979 78.6872 139.467 78.815 138.879 78.8093ZM138.879 77.8718C139.237 77.8718 139.558 77.7823 139.842 77.6034C140.129 77.4244 140.355 77.1843 140.52 76.8832C140.688 76.582 140.771 76.2468 140.771 75.8775C140.771 75.5167 140.69 75.1886 140.529 74.8931C140.369 74.5948 140.149 74.3576 139.868 74.1815C139.59 74.0053 139.271 73.9173 138.913 73.9173C138.644 73.9173 138.392 73.9713 138.159 74.0792C137.926 74.1843 137.722 74.3292 137.546 74.5139C137.372 74.6985 137.236 74.9102 137.136 75.1488C137.037 75.3846 136.987 75.6332 136.987 75.8945C136.987 76.2411 137.068 76.565 137.23 76.8661C137.395 77.1673 137.619 77.4102 137.904 77.5948C138.19 77.7795 138.516 77.8718 138.879 77.8718Z" fill="black"/>
<path d="M158.716 66.69V64.35" stroke="black"/>
<path d="M156.464 78.69L160.368 70.9684V70.9002H155.868V69.9627H161.459V70.9514L157.572 78.69H156.464Z" fill="black"/>
<path d="M178.609 66.69V64.35" stroke="black"/>
<path d="M178.611 78.8093C178.026 78.8093 177.509 78.7056 177.06 78.4982C176.614 78.288 176.266 77.9997 176.016 77.6332C175.766 77.2639 175.642 76.8434 175.645 76.3718C175.642 76.0025 175.715 75.6616 175.862 75.3491C176.01 75.0338 176.212 74.771 176.468 74.5607C176.726 74.3477 177.014 74.2127 177.333 74.1559V74.1048C176.915 73.9968 176.583 73.7624 176.335 73.4017C176.088 73.038 175.966 72.6247 175.969 72.1616C175.966 71.7184 176.078 71.3221 176.306 70.9727C176.533 70.6232 176.845 70.3477 177.243 70.146C177.644 69.9443 178.1 69.8434 178.611 69.8434C179.117 69.8434 179.568 69.9443 179.966 70.146C180.364 70.3477 180.676 70.6232 180.904 70.9727C181.134 71.3221 181.25 71.7184 181.253 72.1616C181.25 72.6247 181.124 73.038 180.874 73.4017C180.627 73.7624 180.299 73.9968 179.889 74.1048V74.1559C180.205 74.2127 180.489 74.3477 180.742 74.5607C180.995 74.771 181.196 75.0338 181.347 75.3491C181.497 75.6616 181.574 76.0025 181.577 76.3718C181.574 76.8434 181.446 77.2639 181.193 77.6332C180.943 77.9997 180.595 78.288 180.149 78.4982C179.706 78.7056 179.193 78.8093 178.611 78.8093ZM178.611 77.8718C179.006 77.8718 179.347 77.8079 179.634 77.6801C179.921 77.5522 180.142 77.3718 180.299 77.1389C180.455 76.9059 180.534 76.6332 180.537 76.3207C180.534 75.9911 180.449 75.6999 180.282 75.4471C180.114 75.1943 179.885 74.9954 179.595 74.8505C179.309 74.7056 178.98 74.6332 178.611 74.6332C178.239 74.6332 177.907 74.7056 177.614 74.8505C177.324 74.9954 177.095 75.1943 176.928 75.4471C176.763 75.6999 176.682 75.9911 176.685 76.3207C176.682 76.6332 176.757 76.9059 176.911 77.1389C177.067 77.3718 177.29 77.5522 177.58 77.6801C177.87 77.8079 178.213 77.8718 178.611 77.8718ZM178.611 73.7298C178.924 73.7298 179.201 73.6673 179.442 73.5423C179.686 73.4173 179.878 73.2426 180.017 73.0181C180.157 72.7937 180.228 72.5309 180.23 72.2298C180.228 71.9343 180.158 71.6772 180.022 71.4585C179.885 71.2369 179.696 71.0664 179.455 70.9471C179.213 70.8249 178.932 70.7639 178.611 70.7639C178.284 70.7639 177.999 70.8249 177.755 70.9471C177.51 71.0664 177.321 71.2369 177.188 71.4585C177.054 71.6772 176.989 71.9343 176.992 72.2298C176.989 72.5309 177.056 72.7937 177.192 73.0181C177.331 73.2426 177.523 73.4173 177.767 73.5423C178.012 73.6673 178.293 73.7298 178.611 73.7298Z" fill="black"/>
<path d="M198.503 66.69V64.35" stroke="black"/>
<path d="M198.441 69.8434C198.799 69.8463 199.157 69.9144 199.515 70.048C199.873 70.1815 200.199 70.4031 200.495 70.7127C200.79 71.0195 201.027 71.4386 201.206 71.9698C201.385 72.5011 201.475 73.1673 201.475 73.9684C201.475 74.744 201.401 75.4329 201.253 76.0352C201.108 76.6346 200.898 77.1403 200.623 77.5522C200.35 77.9642 200.017 78.2767 199.625 78.4897C199.236 78.7028 198.796 78.8093 198.304 78.8093C197.816 78.8093 197.38 78.7127 196.996 78.5195C196.615 78.3235 196.303 78.0522 196.059 77.7056C195.817 77.3562 195.662 76.9514 195.594 76.4911H196.634C196.728 76.8917 196.914 77.2227 197.192 77.484C197.473 77.7426 197.844 77.8718 198.304 77.8718C198.978 77.8718 199.509 77.5778 199.898 76.9897C200.29 76.4017 200.486 75.5707 200.486 74.4968H200.418C200.259 74.7355 200.07 74.9414 199.851 75.1147C199.632 75.288 199.39 75.4215 199.123 75.5153C198.855 75.609 198.571 75.6559 198.27 75.6559C197.77 75.6559 197.311 75.5323 196.894 75.2852C196.479 75.0352 196.147 74.6928 195.897 74.2582C195.65 73.8207 195.526 73.3207 195.526 72.7582C195.526 72.2241 195.645 71.7355 195.884 71.2923C196.125 70.8463 196.463 70.4911 196.898 70.2269C197.336 69.9627 197.85 69.8349 198.441 69.8434ZM198.441 70.7809C198.083 70.7809 197.76 70.8704 197.473 71.0494C197.189 71.2255 196.963 71.4641 196.796 71.7653C196.631 72.0636 196.549 72.3945 196.549 72.7582C196.549 73.1218 196.628 73.4528 196.787 73.7511C196.949 74.0465 197.169 74.2823 197.448 74.4585C197.729 74.6318 198.049 74.7184 198.407 74.7184C198.676 74.7184 198.928 74.6659 199.161 74.5607C199.394 74.4528 199.597 74.3065 199.77 74.1218C199.946 73.9343 200.084 73.7227 200.184 73.4869C200.283 73.2482 200.333 72.9997 200.333 72.7411C200.333 72.4002 200.25 72.0806 200.086 71.7823C199.924 71.484 199.699 71.2426 199.412 71.0579C199.128 70.8732 198.804 70.7809 198.441 70.7809Z" fill="black"/>
<path d="M19.4611 1.94995V64.3499" stroke="black"/>
<path d="M17.6647 64.3499H19.4611" stroke="black"/>
<path d="M12.4177 71.7892C11.7756 71.7892 11.2287 71.6145 10.777 71.2651C10.3253 70.9128 9.98017 70.4029 9.74153 69.7353C9.5029 69.0648 9.38358 68.2551 9.38358 67.3063C9.38358 66.3631 9.5029 65.5577 9.74153 64.8901C9.98301 64.2196 10.3296 63.7083 10.7813 63.356C11.2359 63.0009 11.7813 62.8233 12.4177 62.8233C13.054 62.8233 13.5981 63.0009 14.0498 63.356C14.5043 63.7083 14.8509 64.2196 15.0895 64.8901C15.331 65.5577 15.4518 66.3631 15.4518 67.3063C15.4518 68.2551 15.3324 69.0648 15.0938 69.7353C14.8552 70.4029 14.51 70.9128 14.0583 71.2651C13.6066 71.6145 13.0597 71.7892 12.4177 71.7892ZM12.4177 70.8517C13.054 70.8517 13.5484 70.5449 13.9006 69.9313C14.2529 69.3176 14.429 68.4426 14.429 67.3063C14.429 66.5506 14.3481 65.9071 14.1861 65.3759C14.027 64.8446 13.7969 64.4398 13.4958 64.1614C13.1975 63.883 12.8381 63.7438 12.4177 63.7438C11.787 63.7438 11.2941 64.0549 10.939 64.677C10.5839 65.2963 10.4063 66.1728 10.4063 67.3063C10.4063 68.062 10.4859 68.704 10.6449 69.2324C10.804 69.7608 11.0327 70.1628 11.331 70.4384C11.6322 70.714 11.9944 70.8517 12.4177 70.8517Z" fill="black"/>
<path d="M17.6647 48.7499H19.4611" stroke="black"/>
<path d="M9.80544 56.0699V55.3029L12.6861 52.1495C13.0242 51.7802 13.3026 51.4592 13.5214 51.1864C13.7401 50.9109 13.902 50.6523 14.0071 50.4109C14.1151 50.1665 14.1691 49.9109 14.1691 49.6438C14.1691 49.337 14.0952 49.0714 13.9475 48.8469C13.8026 48.6225 13.6037 48.4492 13.3509 48.327C13.0981 48.2049 12.814 48.1438 12.4986 48.1438C12.1634 48.1438 11.8708 48.2134 11.6208 48.3526C11.3736 48.489 11.1819 48.6807 11.0455 48.9279C10.912 49.1751 10.8452 49.4648 10.8452 49.7972H9.83953C9.83953 49.2859 9.95743 48.837 10.1932 48.4506C10.429 48.0643 10.75 47.7631 11.1563 47.5472C11.5654 47.3313 12.0242 47.2234 12.5327 47.2234C13.0441 47.2234 13.4972 47.3313 13.8921 47.5472C14.287 47.7631 14.5966 48.0543 14.8211 48.4208C15.0455 48.7873 15.1577 49.1949 15.1577 49.6438C15.1577 49.9648 15.0995 50.2788 14.983 50.5856C14.8694 50.8895 14.6705 51.229 14.3864 51.604C14.1052 51.9762 13.7145 52.4307 13.2145 52.9677L11.2543 55.0643V55.1324H15.3111V56.0699H9.80544ZM12.4976 71.1893C11.9976 71.1893 11.5473 71.0898 11.1467 70.891C10.7461 70.6921 10.4251 70.4194 10.1836 70.0728C9.94216 69.7262 9.81006 69.3313 9.78733 68.8881H10.8101C10.8498 69.283 11.0288 69.6097 11.347 69.8682C11.668 70.1239 12.0515 70.2518 12.4976 70.2518C12.8555 70.2518 13.1737 70.168 13.4521 70.0003C13.7334 69.8327 13.9535 69.6026 14.1126 69.31C14.2745 69.0145 14.3555 68.6807 14.3555 68.3086C14.3555 67.9279 14.2717 67.5884 14.1041 67.2901C13.9393 66.989 13.712 66.7518 13.4223 66.5785C13.1325 66.4052 12.8015 66.3171 12.4294 66.3143C12.1623 66.3114 11.8882 66.3526 11.6069 66.4378C11.3257 66.5202 11.0942 66.6268 10.9123 66.7574L9.9237 66.6381L10.4521 62.3427H14.9862V63.2802H11.3385L11.0317 65.854H11.0828C11.2618 65.712 11.4862 65.5941 11.7561 65.5003C12.026 65.4066 12.3072 65.3597 12.5998 65.3597C13.1339 65.3597 13.6098 65.4876 14.0274 65.7432C14.4478 65.9961 14.7774 66.3427 15.016 66.783C15.2575 67.2234 15.3782 67.7262 15.3782 68.2915C15.3782 68.8484 15.2532 69.3455 15.0032 69.783C14.7561 70.2177 14.4152 70.5614 13.9805 70.8143C13.5459 71.0643 13.0515 71.1893 12.4976 71.1893ZM12.4177 86.1893C11.7756 86.1893 11.2287 86.0145 10.777 85.6651C10.3253 85.3128 9.98016 84.8029 9.74152 84.1353C9.50289 83.4648 9.38357 82.6552 9.38357 81.7063C9.38357 80.7631 9.50289 79.9577 9.74152 79.2901C9.983 78.6197 10.3296 78.1083 10.7813 77.756C11.2358 77.4009 11.7813 77.2234 12.4177 77.2234C13.054 77.2234 13.5981 77.4009 14.0498 77.756C14.5043 78.1083 14.8509 78.6197 15.0895 79.2901C15.331 79.9577 15.4518 80.7631 15.4518 81.7063C15.4518 82.6552 15.3324 83.4648 15.0938 84.1353C14.8552 84.8029 14.51 85.3128 14.0583 85.6651C13.6066 86.0145 13.0597 86.1893 12.4177 86.1893ZM12.4177 85.2518C13.054 85.2518 13.5483 84.9449 13.9006 84.3313C14.2529 83.7177 14.429 82.8427 14.429 81.7063C14.429 80.9506 14.3481 80.3072 14.1861 79.7759C14.027 79.2447 13.7969 78.8398 13.4958 78.5614C13.1975 78.283 12.8381 78.1438 12.4177 78.1438C11.787 78.1438 11.2941 78.4549 10.939 79.077C10.5839 79.6964 10.4063 80.5728 10.4063 81.7063C10.4063 82.462 10.4858 83.104 10.6449 83.6324C10.804 84.1609 11.0327 84.5628 11.331 84.8384C11.6321 85.114 11.9944 85.2518 12.4177 85.2518Z" fill="black"/>
<path d="M17.6647 33.15H19.4611" stroke="black"/>
<path d="M12.4976 40.5893C11.9976 40.5893 11.5473 40.4899 11.1467 40.291C10.7461 40.0921 10.4251 39.8194 10.1836 39.4728C9.94216 39.1262 9.81006 38.7313 9.78733 38.2882H10.8101C10.8498 38.683 11.0288 39.0097 11.347 39.2683C11.668 39.5239 12.0515 39.6518 12.4976 39.6518C12.8555 39.6518 13.1737 39.568 13.4521 39.4004C13.7334 39.2328 13.9535 39.0026 14.1126 38.71C14.2745 38.4146 14.3555 38.0808 14.3555 37.7086C14.3555 37.3279 14.2717 36.9884 14.1041 36.6901C13.9393 36.389 13.712 36.1518 13.4223 35.9785C13.1325 35.8052 12.8015 35.7171 12.4294 35.7143C12.1623 35.7114 11.8882 35.7526 11.6069 35.8379C11.3257 35.9203 11.0942 36.0268 10.9123 36.1575L9.9237 36.0382L10.4521 31.7427H14.9862V32.6802H11.3385L11.0317 35.2541H11.0828C11.2618 35.112 11.4862 34.9941 11.7561 34.9004C12.026 34.8066 12.3072 34.7597 12.5998 34.7597C13.1339 34.7597 13.6098 34.8876 14.0274 35.1433C14.4478 35.3961 14.7774 35.7427 15.016 36.183C15.2575 36.6234 15.3782 37.1262 15.3782 37.6916C15.3782 38.2484 15.2532 38.7455 15.0032 39.183C14.7561 39.6177 14.4152 39.9614 13.9805 40.2143C13.5459 40.4643 13.0515 40.5893 12.4976 40.5893ZM12.4177 55.5893C11.7756 55.5893 11.2287 55.4146 10.777 55.0651C10.3253 54.7129 9.98016 54.2029 9.74152 53.5353C9.50289 52.8649 9.38357 52.0552 9.38357 51.1063C9.38357 50.1632 9.50289 49.3578 9.74152 48.6901C9.983 48.0197 10.3296 47.5083 10.7813 47.156C11.2358 46.8009 11.7813 46.6234 12.4177 46.6234C13.054 46.6234 13.5981 46.8009 14.0498 47.156C14.5043 47.5083 14.8509 48.0197 15.0895 48.6901C15.331 49.3578 15.4518 50.1632 15.4518 51.1063C15.4518 52.0552 15.3324 52.8649 15.0938 53.5353C14.8552 54.2029 14.51 54.7129 14.0583 55.0651C13.6066 55.4146 13.0597 55.5893 12.4177 55.5893ZM12.4177 54.6518C13.054 54.6518 13.5483 54.345 13.9006 53.7313C14.2529 53.1177 14.429 52.2427 14.429 51.1063C14.429 50.3507 14.3481 49.7072 14.1861 49.1759C14.027 48.6447 13.7969 48.2399 13.4958 47.9614C13.1975 47.683 12.8381 47.5438 12.4177 47.5438C11.787 47.5438 11.2941 47.8549 10.939 48.4771C10.5839 49.0964 10.4063 49.9728 10.4063 51.1063C10.4063 51.862 10.4858 52.5041 10.6449 53.0325C10.804 53.5609 11.0327 53.9629 11.331 54.2384C11.6321 54.514 11.9944 54.6518 12.4177 54.6518ZM12.4177 70.5893C11.7756 70.5893 11.2287 70.4146 10.777 70.0651C10.3253 69.7129 9.98016 69.2029 9.74152 68.5353C9.50289 67.8649 9.38357 67.0552 9.38357 66.1063C9.38357 65.1632 9.50289 64.3578 9.74152 63.6901C9.983 63.0197 10.3296 62.5083 10.7813 62.156C11.2358 61.8009 11.7813 61.6234 12.4177 61.6234C13.054 61.6234 13.5981 61.8009 14.0498 62.156C14.5043 62.5083 14.8509 63.0197 15.0895 63.6901C15.331 64.3578 15.4518 65.1632 15.4518 66.1063C15.4518 67.0552 15.3324 67.8649 15.0938 68.5353C14.8552 69.2029 14.51 69.7129 14.0583 70.0651C13.6066 70.4146 13.0597 70.5893 12.4177 70.5893ZM12.4177 69.6518C13.054 69.6518 13.5483 69.345 13.9006 68.7313C14.2529 68.1177 14.429 67.2427 14.429 66.1063C14.429 65.3507 14.3481 64.7072 14.1861 64.1759C14.027 63.6447 13.7969 63.2399 13.4958 62.9614C13.1975 62.683 12.8381 62.5438 12.4177 62.5438C11.787 62.5438 11.2941 62.8549 10.939 63.4771C10.5839 64.0964 10.4063 64.9728 10.4063 66.1063C10.4063 66.862 10.4858 67.5041 10.6449 68.0325C10.804 68.5609 11.0327 68.9629 11.331 69.2384C11.6321 69.514 11.9944 69.6518 12.4177 69.6518Z" fill="black"/>
<path d="M17.6647 17.55H19.4611" stroke="black"/>
<path d="M10.6056 24.87L14.509 17.1484V17.0802H10.009V16.1427H15.5999V17.1314L11.7135 24.87H10.6056ZM12.4976 39.9893C11.9976 39.9893 11.5473 39.8899 11.1467 39.691C10.7462 39.4922 10.4252 39.2194 10.1837 38.8728C9.9422 38.5262 9.8101 38.1314 9.78737 37.6882H10.8101C10.8499 38.0831 11.0288 38.4098 11.347 38.6683C11.6681 38.924 12.0516 39.0518 12.4976 39.0518C12.8556 39.0518 13.1737 38.968 13.4521 38.8004C13.7334 38.6328 13.9536 38.4027 14.1127 38.1101C14.2746 37.8146 14.3556 37.4808 14.3556 37.1086C14.3556 36.7279 14.2717 36.3885 14.1041 36.0902C13.9394 35.789 13.7121 35.5518 13.4223 35.3785C13.1325 35.2052 12.8016 35.1172 12.4294 35.1143C12.1624 35.1115 11.8882 35.1527 11.607 35.2379C11.3257 35.3203 11.0942 35.4268 10.9124 35.5575L9.92373 35.4382L10.4521 31.1427H14.9862V32.0802H11.3385L11.0317 34.6541H11.0828C11.2618 34.512 11.4862 34.3941 11.7561 34.3004C12.026 34.2066 12.3073 34.1598 12.5999 34.1598C13.134 34.1598 13.6098 34.2876 14.0274 34.5433C14.4479 34.7961 14.7774 35.1427 15.0161 35.5831C15.2575 36.0234 15.3783 36.5262 15.3783 37.0916C15.3783 37.6484 15.2533 38.1456 15.0033 38.5831C14.7561 39.0177 14.4152 39.3615 13.9806 39.6143C13.5459 39.8643 13.0516 39.9893 12.4976 39.9893ZM12.4177 54.9893C11.7757 54.9893 11.2288 54.8146 10.7771 54.4652C10.3254 54.1129 9.9802 53.6029 9.74156 52.9353C9.50292 52.2649 9.38361 51.4552 9.38361 50.5064C9.38361 49.5632 9.50292 48.7578 9.74156 48.0902C9.98304 47.4197 10.3296 46.9083 10.7813 46.5561C11.2359 46.201 11.7813 46.0234 12.4177 46.0234C13.0541 46.0234 13.5981 46.201 14.0498 46.5561C14.5043 46.9083 14.8509 47.4197 15.0896 48.0902C15.331 48.7578 15.4518 49.5632 15.4518 50.5064C15.4518 51.4552 15.3325 52.2649 15.0938 52.9353C14.8552 53.6029 14.51 54.1129 14.0583 54.4652C13.6066 54.8146 13.0597 54.9893 12.4177 54.9893ZM12.4177 54.0518C13.0541 54.0518 13.5484 53.745 13.9007 53.1314C14.2529 52.5177 14.4291 51.6427 14.4291 50.5064C14.4291 49.7507 14.3481 49.1072 14.1862 48.576C14.0271 48.0447 13.797 47.6399 13.4958 47.3615C13.1975 47.0831 12.8382 46.9439 12.4177 46.9439C11.787 46.9439 11.2941 47.2549 10.939 47.8771C10.5839 48.4964 10.4063 49.3728 10.4063 50.5064C10.4063 51.262 10.4859 51.9041 10.645 52.4325C10.8041 52.9609 11.0328 53.3629 11.331 53.6385C11.6322 53.914 11.9944 54.0518 12.4177 54.0518Z" fill="black"/>
<path d="M17.6647 1.94995H19.4611" stroke="black"/>
<path d="M14.5611 2.17885V10.9061H13.5043V3.28681H13.4532L11.3225 4.70158V3.62772L13.5043 2.17885H14.5611ZM12.4177 26.0254C11.7756 26.0254 11.2288 25.8507 10.7771 25.5013C10.3254 25.149 9.98018 24.6391 9.74154 23.9715C9.50291 23.301 9.38359 22.4914 9.38359 21.5425C9.38359 20.5993 9.50291 19.7939 9.74154 19.1263C9.98302 18.4558 10.3296 17.9445 10.7813 17.5922C11.2359 17.2371 11.7813 17.0595 12.4177 17.0595C13.054 17.0595 13.5981 17.2371 14.0498 17.5922C14.5043 17.9445 14.8509 18.4558 15.0896 19.1263C15.331 19.7939 15.4518 20.5993 15.4518 21.5425C15.4518 22.4914 15.3325 23.301 15.0938 23.9715C14.8552 24.6391 14.51 25.149 14.0583 25.5013C13.6066 25.8507 13.0597 26.0254 12.4177 26.0254ZM12.4177 25.0879C13.054 25.0879 13.5484 24.7811 13.9006 24.1675C14.2529 23.5539 14.429 22.6789 14.429 21.5425C14.429 20.7868 14.3481 20.1433 14.1861 19.6121C14.0271 19.0808 13.7969 18.676 13.4958 18.3976C13.1975 18.1192 12.8381 17.98 12.4177 17.98C11.787 17.98 11.2941 18.2911 10.939 18.9132C10.5839 19.5325 10.4063 20.409 10.4063 21.5425C10.4063 22.2982 10.4859 22.9402 10.645 23.4686C10.804 23.997 11.0327 24.399 11.331 24.6746C11.6322 24.9502 11.9944 25.0879 12.4177 25.0879ZM12.4177 41.0254C11.7756 41.0254 11.2288 40.8507 10.7771 40.5013C10.3254 40.149 9.98018 39.6391 9.74154 38.9715C9.50291 38.301 9.38359 37.4914 9.38359 36.5425C9.38359 35.5993 9.50291 34.7939 9.74154 34.1263C9.98302 33.4558 10.3296 32.9445 10.7813 32.5922C11.2359 32.2371 11.7813 32.0595 12.4177 32.0595C13.054 32.0595 13.5981 32.2371 14.0498 32.5922C14.5043 32.9445 14.8509 33.4558 15.0896 34.1263C15.331 34.7939 15.4518 35.5993 15.4518 36.5425C15.4518 37.4914 15.3325 38.301 15.0938 38.9715C14.8552 39.6391 14.51 40.149 14.0583 40.5013C13.6066 40.8507 13.0597 41.0254 12.4177 41.0254ZM12.4177 40.0879C13.054 40.0879 13.5484 39.7811 13.9006 39.1675C14.2529 38.5539 14.429 37.6789 14.429 36.5425C14.429 35.7868 14.3481 35.1433 14.1861 34.6121C14.0271 34.0808 13.7969 33.676 13.4958 33.3976C13.1975 33.1192 12.8381 32.98 12.4177 32.98C11.787 32.98 11.2941 33.2911 10.939 33.9132C10.5839 34.5325 10.4063 35.409 10.4063 36.5425C10.4063 37.2982 10.4859 37.9402 10.645 38.4686C10.804 38.997 11.0327 39.399 11.331 39.6746C11.6322 39.9502 11.9944 40.0879 12.4177 40.0879ZM12.4177 56.0254C11.7756 56.0254 11.2288 55.8507 10.7771 55.5013C10.3254 55.149 9.98018 54.6391 9.74154 53.9715C9.50291 53.301 9.38359 52.4914 9.38359 51.5425C9.38359 50.5993 9.50291 49.7939 9.74154 49.1263C9.98302 48.4558 10.3296 47.9445 10.7813 47.5922C11.2359 47.2371 11.7813 47.0595 12.4177 47.0595C13.054 47.0595 13.5981 47.2371 14.0498 47.5922C14.5043 47.9445 14.8509 48.4558 15.0896 49.1263C15.331 49.7939 15.4518 50.5993 15.4518 51.5425C15.4518 52.4914 15.3325 53.301 15.0938 53.9715C14.8552 54.6391 14.51 55.149 14.0583 55.5013C13.6066 55.8507 13.0597 56.0254 12.4177 56.0254ZM12.4177 55.0879C13.054 55.0879 13.5484 54.7811 13.9006 54.1675C14.2529 53.5539 14.429 52.6789 14.429 51.5425C14.429 50.7868 14.3481 50.1433 14.1861 49.6121C14.0271 49.0808 13.7969 48.676 13.4958 48.3976C13.1975 48.1192 12.8381 47.98 12.4177 47.98C11.787 47.98 11.2941 48.2911 10.939 48.9132C10.5839 49.5325 10.4063 50.409 10.4063 51.5425C10.4063 52.2982 10.4859 52.9402 10.645 53.4686C10.804 53.997 11.0327 54.399 11.331 54.6746C11.6322 54.9502 11.9944 55.0879 12.4177 55.0879Z" fill="black"/>
<path d="M19.4611 64.35H198.503" stroke="#CCCCCC"/>
<path d="M19.4611 48.7499H198.503" stroke="#CCCCCC"/>
<path d="M19.4611 33.15H198.503" stroke="#CCCCCC"/>
<path d="M19.4611 17.5499H198.503" stroke="#CCCCCC"/>
<path d="M19.4611 1.94995H198.503" stroke="#CCCCCC"/>
<path d="M19.4611 1.94995V64.3499" stroke="#CCCCCC"/>
<path d="M39.3546 1.94995V64.3499" stroke="#CCCCCC"/>
<path d="M59.2482 1.94995V64.3499" stroke="#CCCCCC"/>
<path d="M79.1417 1.94995V64.3499" stroke="#CCCCCC"/>
<path d="M99.0353 1.94995V64.3499" stroke="#CCCCCC"/>
<path d="M118.929 1.94995V64.3499" stroke="#CCCCCC"/>
<path d="M138.822 1.94995V64.3499" stroke="#CCCCCC"/>
<path d="M158.716 1.94995V64.3499" stroke="#CCCCCC"/>
<path d="M178.609 1.94995V64.3499" stroke="#CCCCCC"/>
<path d="M198.503 1.94995V64.3499" stroke="#CCCCCC"/>
<path d="M19.4611 28.782L39.3546 22.1676L59.2482 12.6828L79.1417 31.6524L99.0352 26.4108L118.929 3.82202L138.822 18.5484L158.716 15.8652L178.609 24.4764L198.503 44.5692" stroke="#A6B4E3"/>
<path d="M19.4611 29.952C19.9571 29.952 20.3593 29.4282 20.3593 28.782C20.3593 28.1358 19.9571 27.612 19.4611 27.612C18.965 27.612 18.5629 28.1358 18.5629 28.782C18.5629 29.4282 18.965 29.952 19.4611 29.952Z" fill="white" stroke="#A6B4E3"/>
<path d="M39.3546 23.3376C39.8507 23.3376 40.2528 22.8137 40.2528 22.1676C40.2528 21.5214 39.8507 20.9976 39.3546 20.9976C38.8586 20.9976 38.4564 21.5214 38.4564 22.1676C38.4564 22.8137 38.8586 23.3376 39.3546 23.3376Z" fill="white" stroke="#A6B4E3"/>
<path d="M59.2482 13.8528C59.7442 13.8528 60.1464 13.329 60.1464 12.6828C60.1464 12.0366 59.7442 11.5128 59.2482 11.5128C58.7521 11.5128 58.35 12.0366 58.35 12.6828C58.35 13.329 58.7521 13.8528 59.2482 13.8528Z" fill="white" stroke="#A6B4E3"/>
<path d="M79.1417 32.8224C79.6378 32.8224 80.0399 32.2985 80.0399 31.6524C80.0399 31.0062 79.6378 30.4824 79.1417 30.4824C78.6457 30.4824 78.2435 31.0062 78.2435 31.6524C78.2435 32.2985 78.6457 32.8224 79.1417 32.8224Z" fill="white" stroke="#A6B4E3"/>
<path d="M99.0352 27.5808C99.5313 27.5808 99.9334 27.057 99.9334 26.4108C99.9334 25.7646 99.5313 25.2408 99.0352 25.2408C98.5392 25.2408 98.137 25.7646 98.137 26.4108C98.137 27.057 98.5392 27.5808 99.0352 27.5808Z" fill="white" stroke="#A6B4E3"/>
<path d="M118.929 4.99198C119.425 4.99198 119.827 4.46815 119.827 3.82198C119.827 3.1758 119.425 2.65198 118.929 2.65198C118.433 2.65198 118.031 3.1758 118.031 3.82198C118.031 4.46815 118.433 4.99198 118.929 4.99198Z" fill="white" stroke="#A6B4E3"/>
<path d="M138.822 19.7184C139.318 19.7184 139.721 19.1945 139.721 18.5484C139.721 17.9022 139.318 17.3784 138.822 17.3784C138.326 17.3784 137.924 17.9022 137.924 18.5484C137.924 19.1945 138.326 19.7184 138.822 19.7184Z" fill="white" stroke="#A6B4E3"/>
<path d="M158.716 17.0352C159.212 17.0352 159.614 16.5114 159.614 15.8652C159.614 15.219 159.212 14.6952 158.716 14.6952C158.22 14.6952 157.818 15.219 157.818 15.8652C157.818 16.5114 158.22 17.0352 158.716 17.0352Z" fill="white" stroke="#A6B4E3"/>
<path d="M178.609 25.6464C179.105 25.6464 179.508 25.1226 179.508 24.4764C179.508 23.8302 179.105 23.3064 178.609 23.3064C178.113 23.3064 177.711 23.8302 177.711 24.4764C177.711 25.1226 178.113 25.6464 178.609 25.6464Z" fill="white" stroke="#A6B4E3"/>
<path d="M198.503 45.7392C198.999 45.7392 199.401 45.2153 199.401 44.5692C199.401 43.923 198.999 43.3992 198.503 43.3992C198.007 43.3992 197.605 43.923 197.605 44.5692C197.605 45.2153 198.007 45.7392 198.503 45.7392Z" fill="white" stroke="#A6B4E3"/>
<path d="M19.4611 59.1708L39.3546 60.8556L59.2482 25.2252L79.1417 10.686L99.0352 35.0844L118.929 34.7724L138.822 18.9228L158.716 37.7052L178.609 25.1628L198.503 43.134" stroke="#7D0892"/>
<path d="M19.4611 60.3408C19.9571 60.3408 20.3593 59.817 20.3593 59.1708C20.3593 58.5246 19.9571 58.0008 19.4611 58.0008C18.965 58.0008 18.5629 58.5246 18.5629 59.1708C18.5629 59.817 18.965 60.3408 19.4611 60.3408Z" fill="white" stroke="#7D0892"/>
<path d="M39.3546 62.0256C39.8507 62.0256 40.2528 61.5018 40.2528 60.8556C40.2528 60.2094 39.8507 59.6856 39.3546 59.6856C38.8586 59.6856 38.4564 60.2094 38.4564 60.8556C38.4564 61.5018 38.8586 62.0256 39.3546 62.0256Z" fill="white" stroke="#7D0892"/>
<path d="M59.2482 26.3952C59.7442 26.3952 60.1464 25.8713 60.1464 25.2252C60.1464 24.579 59.7442 24.0552 59.2482 24.0552C58.7521 24.0552 58.35 24.579 58.35 25.2252C58.35 25.8713 58.7521 26.3952 59.2482 26.3952Z" fill="white" stroke="#7D0892"/>
<path d="M79.1417 11.856C79.6378 11.856 80.0399 11.3322 80.0399 10.686C80.0399 10.0398 79.6378 9.51599 79.1417 9.51599C78.6457 9.51599 78.2435 10.0398 78.2435 10.686C78.2435 11.3322 78.6457 11.856 79.1417 11.856Z" fill="white" stroke="#7D0892"/>
<path d="M99.0352 36.2544C99.5313 36.2544 99.9334 35.7305 99.9334 35.0844C99.9334 34.4382 99.5313 33.9144 99.0352 33.9144C98.5392 33.9144 98.137 34.4382 98.137 35.0844C98.137 35.7305 98.5392 36.2544 99.0352 36.2544Z" fill="white" stroke="#7D0892"/>
<path d="M118.929 35.9424C119.425 35.9424 119.827 35.4186 119.827 34.7724C119.827 34.1262 119.425 33.6024 118.929 33.6024C118.433 33.6024 118.031 34.1262 118.031 34.7724C118.031 35.4186 118.433 35.9424 118.929 35.9424Z" fill="white" stroke="#7D0892"/>
<path d="M138.822 20.0928C139.318 20.0928 139.721 19.569 139.721 18.9228C139.721 18.2766 139.318 17.7528 138.822 17.7528C138.326 17.7528 137.924 18.2766 137.924 18.9228C137.924 19.569 138.326 20.0928 138.822 20.0928Z" fill="white" stroke="#7D0892"/>
<path d="M158.716 38.8752C159.212 38.8752 159.614 38.3514 159.614 37.7052C159.614 37.059 159.212 36.5352 158.716 36.5352C158.22 36.5352 157.818 37.059 157.818 37.7052C157.818 38.3514 158.22 38.8752 158.716 38.8752Z" fill="white" stroke="#7D0892"/>
<path d="M178.609 26.3328C179.105 26.3328 179.508 25.809 179.508 25.1628C179.508 24.5166 179.105 23.9928 178.609 23.9928C178.113 23.9928 177.711 24.5166 177.711 25.1628C177.711 25.809 178.113 26.3328 178.609 26.3328Z" fill="white" stroke="#7D0892"/>
<path d="M198.503 44.304C198.999 44.304 199.401 43.7802 199.401 43.134C199.401 42.4878 198.999 41.964 198.503 41.964C198.007 41.964 197.605 42.4878 197.605 43.134C197.605 43.7802 198.007 44.304 198.503 44.304Z" fill="white" stroke="#7D0892"/>
</g>
<defs>
<clipPath id="clip0_561_286">
<rect width="200" height="78" fill="white"/>
</clipPath>
</defs>
</svg>
