<svg width="159" height="62" viewBox="0 0 159 62" fill="none" xmlns="http://www.w3.org/2000/svg">
<g clip-path="url(#clip0_561_286)">
<path d="M15.4716 51.15H157.81" stroke="black"/>
<path d="M15.4716 53.01V51.15" stroke="black"/>
<path d="M15.4715 65.1293C14.8295 65.1293 14.2826 64.9546 13.8309 64.6052C13.3792 64.2529 13.034 63.743 12.7954 63.0754C12.5567 62.4049 12.4374 61.5952 12.4374 60.6464C12.4374 59.7032 12.5567 58.8978 12.7954 58.2302C13.0368 57.5597 13.3834 57.0484 13.8351 56.6961C14.2897 56.341 14.8351 56.1634 15.4715 56.1634C16.1079 56.1634 16.6519 56.341 17.1036 56.6961C17.5582 57.0484 17.9047 57.5597 18.1434 58.2302C18.3849 58.8978 18.5056 59.7032 18.5056 60.6464C18.5056 61.5952 18.3863 62.4049 18.1476 63.0754C17.909 63.743 17.5638 64.2529 17.1121 64.6052C16.6604 64.9546 16.1135 65.1293 15.4715 65.1293ZM15.4715 64.1918C16.1079 64.1918 16.6022 63.885 16.9545 63.2714C17.3067 62.6577 17.4829 61.7827 17.4829 60.6464C17.4829 59.8907 17.4019 59.2472 17.24 58.716C17.0809 58.1847 16.8508 57.7799 16.5496 57.5015C16.2513 57.2231 15.892 57.0839 15.4715 57.0839C14.8408 57.0839 14.3479 57.395 13.9928 58.0171C13.6377 58.6364 13.4601 59.5129 13.4601 60.6464C13.4601 61.4021 13.5397 62.0441 13.6988 62.5725C13.8579 63.1009 14.0866 63.5029 14.3849 63.7785C14.686 64.054 15.0482 64.1918 15.4715 64.1918Z" fill="black"/>
<path d="M31.2869 53.01V51.15" stroke="black"/>
<path d="M32.4694 56.2827V65.01H31.4125V57.3907H31.3614L29.2307 58.8055V57.7316L31.4125 56.2827H32.4694Z" fill="black"/>
<path d="M47.1023 53.01V51.15" stroke="black"/>
<path d="M44.3728 65.01V64.243L47.2535 61.0896C47.5916 60.7202 47.87 60.3992 48.0888 60.1265C48.3075 59.8509 48.4694 59.5924 48.5745 59.3509C48.6825 59.1066 48.7365 58.8509 48.7365 58.5839C48.7365 58.2771 48.6626 58.0114 48.5149 57.787C48.37 57.5626 48.1711 57.3893 47.9183 57.2671C47.6655 57.145 47.3814 57.0839 47.066 57.0839C46.7308 57.0839 46.4382 57.1535 46.1882 57.2927C45.941 57.429 45.7493 57.6208 45.6129 57.868C45.4794 58.1151 45.4126 58.4049 45.4126 58.7373H44.4069C44.4069 58.2259 44.5248 57.7771 44.7606 57.3907C44.9964 57.0043 45.3174 56.7032 45.7237 56.4873C46.1328 56.2714 46.5916 56.1634 47.1001 56.1634C47.6115 56.1634 48.0646 56.2714 48.4595 56.4873C48.8544 56.7032 49.164 56.9944 49.3885 57.3609C49.6129 57.7273 49.7251 58.135 49.7251 58.5839C49.7251 58.9049 49.6669 59.2188 49.5504 59.5256C49.4368 59.8296 49.2379 60.1691 48.9538 60.5441C48.6726 60.9163 48.2819 61.3708 47.7819 61.9077L45.8217 64.0043V64.0725H49.8785V65.01H44.3728Z" fill="black"/>
<path d="M62.9177 53.01V51.15" stroke="black"/>
<path d="M62.9496 65.1293C62.3871 65.1293 61.8857 65.0327 61.4454 64.8396C61.0079 64.6464 60.6599 64.3779 60.4013 64.0342C60.1457 63.6876 60.0065 63.2856 59.9837 62.8282H61.0576C61.0803 63.1094 61.1769 63.3523 61.3474 63.5569C61.5178 63.7586 61.7408 63.9148 62.0164 64.0256C62.292 64.1364 62.5974 64.1918 62.9326 64.1918C63.3076 64.1918 63.64 64.1265 63.9297 63.9958C64.2195 63.8651 64.4468 63.6833 64.6116 63.4504C64.7763 63.2174 64.8587 62.9475 64.8587 62.6407C64.8587 62.3197 64.7792 62.037 64.6201 61.7927C64.461 61.5455 64.228 61.3523 63.9212 61.2131C63.6144 61.0739 63.2394 61.0043 62.7962 61.0043H62.0974V60.0668H62.7962C63.1428 60.0668 63.4468 60.0043 63.7082 59.8793C63.9724 59.7543 64.1783 59.5782 64.3261 59.3509C64.4766 59.1236 64.5519 58.8566 64.5519 58.5498C64.5519 58.2543 64.4866 57.9972 64.3559 57.7785C64.2252 57.5597 64.0405 57.3893 63.8019 57.2671C63.5661 57.145 63.2877 57.0839 62.9667 57.0839C62.6655 57.0839 62.3815 57.1393 62.1144 57.2501C61.8502 57.358 61.6343 57.5157 61.4667 57.7231C61.2991 57.9276 61.2082 58.1748 61.194 58.4646H60.1712C60.1883 58.0072 60.3261 57.6066 60.5846 57.2629C60.8431 56.9163 61.1812 56.6464 61.5988 56.4532C62.0192 56.26 62.4809 56.1634 62.9837 56.1634C63.5235 56.1634 63.9866 56.2728 64.3729 56.4915C64.7593 56.7075 65.0562 56.993 65.2636 57.3481C65.4709 57.7032 65.5746 58.0867 65.5746 58.4986C65.5746 58.9901 65.4454 59.4092 65.1868 59.7557C64.9312 60.1023 64.5832 60.3424 64.1428 60.4759V60.5441C64.694 60.635 65.1243 60.8694 65.434 61.2472C65.7437 61.6222 65.8985 62.0867 65.8985 62.6407C65.8985 63.1151 65.7692 63.5413 65.5107 63.9191C65.255 64.2941 64.9056 64.5896 64.4624 64.8055C64.0192 65.0214 63.515 65.1293 62.9496 65.1293Z" fill="black"/>
<path d="M78.733 53.01V51.15" stroke="black"/>
<path d="M75.5822 63.2202V62.3509L79.4175 56.2827H80.0481V57.6293H79.622L76.7243 62.2146V62.2827H81.8891V63.2202H75.5822ZM79.6902 65.01V62.956V62.5512V56.2827H80.6959V65.01H79.6902Z" fill="black"/>
<path d="M94.5483 53.01V51.15" stroke="black"/>
<path d="M94.5287 65.1293C94.0287 65.1293 93.5784 65.0299 93.1778 64.831C92.7773 64.6322 92.4562 64.3594 92.2148 64.0129C91.9733 63.6663 91.8412 63.2714 91.8185 62.8282H92.8412C92.881 63.2231 93.0599 63.5498 93.3781 63.8083C93.6991 64.064 94.0827 64.1918 94.5287 64.1918C94.8866 64.1918 95.2048 64.108 95.4832 63.9404C95.7645 63.7728 95.9847 63.5427 96.1437 63.2501C96.3057 62.9546 96.3866 62.6208 96.3866 62.2486C96.3866 61.868 96.3028 61.5285 96.1352 61.2302C95.9705 60.929 95.7432 60.6918 95.4534 60.5185C95.1636 60.3452 94.8327 60.2572 94.4605 60.2543C94.1935 60.2515 93.9193 60.2927 93.6381 60.3779C93.3568 60.4603 93.1253 60.5668 92.9435 60.6975L91.9548 60.5782L92.4832 56.2827H97.0173V57.2202H93.3696L93.0628 59.7941H93.1139C93.2929 59.6521 93.5173 59.5342 93.7872 59.4404C94.0571 59.3467 94.3383 59.2998 94.631 59.2998C95.1651 59.2998 95.6409 59.4276 96.0585 59.6833C96.479 59.9361 96.8085 60.2827 97.0472 60.7231C97.2886 61.1634 97.4094 61.6663 97.4094 62.2316C97.4094 62.7884 97.2844 63.2856 97.0344 63.7231C96.7872 64.1577 96.4463 64.5015 96.0116 64.7543C95.577 65.0043 95.0827 65.1293 94.5287 65.1293Z" fill="black"/>
<path d="M110.364 53.01V51.15" stroke="black"/>
<path d="M110.421 65.1293C110.063 65.1236 109.705 65.0555 109.347 64.9248C108.989 64.7941 108.662 64.5739 108.367 64.2643C108.071 63.9518 107.834 63.5299 107.655 62.9986C107.476 62.4646 107.387 61.7941 107.387 60.9873C107.387 60.2146 107.459 59.5299 107.604 58.9333C107.749 58.3339 107.959 57.8296 108.235 57.4205C108.51 57.0086 108.843 56.6961 109.232 56.483C109.624 56.27 110.066 56.1634 110.557 56.1634C111.046 56.1634 111.48 56.2614 111.861 56.4575C112.245 56.6506 112.557 56.9205 112.799 57.2671C113.04 57.6137 113.196 58.0129 113.267 58.4646H112.228C112.131 58.0725 111.943 57.7472 111.665 57.4887C111.387 57.2302 111.017 57.1009 110.557 57.1009C109.881 57.1009 109.348 57.395 108.959 57.983C108.573 58.5711 108.378 59.3964 108.375 60.4589H108.443C108.603 60.2174 108.791 60.0114 109.01 59.841C109.232 59.6677 109.476 59.5342 109.743 59.4404C110.01 59.3467 110.293 59.2998 110.591 59.2998C111.091 59.2998 111.549 59.4248 111.963 59.6748C112.378 59.9219 112.71 60.2643 112.96 60.7018C113.21 61.1364 113.335 61.635 113.335 62.1975C113.335 62.7373 113.215 63.2316 112.973 63.6805C112.732 64.1265 112.392 64.4816 111.955 64.7458C111.52 65.0072 111.009 65.135 110.421 65.1293ZM110.421 64.1918C110.779 64.1918 111.1 64.1023 111.384 63.9234C111.671 63.7444 111.897 63.5043 112.061 63.2032C112.229 62.9021 112.313 62.5668 112.313 62.1975C112.313 61.8367 112.232 61.5086 112.07 61.2131C111.911 60.9148 111.691 60.6776 111.409 60.5015C111.131 60.3254 110.813 60.2373 110.455 60.2373C110.185 60.2373 109.934 60.2913 109.701 60.3992C109.468 60.5043 109.263 60.6492 109.087 60.8339C108.914 61.0185 108.777 61.2302 108.678 61.4688C108.578 61.7046 108.529 61.9532 108.529 62.2146C108.529 62.5611 108.61 62.885 108.772 63.1861C108.936 63.4873 109.161 63.7302 109.445 63.9148C109.732 64.0995 110.057 64.1918 110.421 64.1918Z" fill="black"/>
<path d="M126.179 53.01V51.15" stroke="black"/>
<path d="M123.927 65.01L127.831 57.2884V57.2202H123.331V56.2827H128.922V57.2714L125.035 65.01H123.927Z" fill="black"/>
<path d="M141.995 53.01V51.15" stroke="black"/>
<path d="M141.996 65.1293C141.411 65.1293 140.894 65.0256 140.445 64.8182C139.999 64.608 139.651 64.3197 139.401 63.9532C139.151 63.5839 139.027 63.1634 139.03 62.6918C139.027 62.3225 139.1 61.9816 139.247 61.6691C139.395 61.3538 139.597 61.091 139.853 60.8807C140.111 60.6677 140.399 60.5327 140.718 60.4759V60.4248C140.3 60.3168 139.968 60.0825 139.72 59.7217C139.473 59.358 139.351 58.9447 139.354 58.4816C139.351 58.0384 139.463 57.6421 139.691 57.2927C139.918 56.9432 140.23 56.6677 140.628 56.466C141.029 56.2643 141.485 56.1634 141.996 56.1634C142.502 56.1634 142.953 56.2643 143.351 56.466C143.749 56.6677 144.061 56.9432 144.289 57.2927C144.519 57.6421 144.635 58.0384 144.638 58.4816C144.635 58.9447 144.509 59.358 144.259 59.7217C144.012 60.0825 143.684 60.3168 143.274 60.4248V60.4759C143.59 60.5327 143.874 60.6677 144.127 60.8807C144.38 61.091 144.581 61.3538 144.732 61.6691C144.882 61.9816 144.959 62.3225 144.962 62.6918C144.959 63.1634 144.831 63.5839 144.578 63.9532C144.328 64.3197 143.98 64.608 143.534 64.8182C143.091 65.0256 142.578 65.1293 141.996 65.1293ZM141.996 64.1918C142.391 64.1918 142.732 64.1279 143.019 64.0001C143.306 63.8722 143.527 63.6918 143.684 63.4589C143.84 63.2259 143.919 62.9532 143.922 62.6407C143.919 62.3111 143.834 62.02 143.667 61.7671C143.499 61.5143 143.27 61.3154 142.98 61.1705C142.693 61.0256 142.365 60.9532 141.996 60.9532C141.624 60.9532 141.292 61.0256 140.999 61.1705C140.709 61.3154 140.48 61.5143 140.313 61.7671C140.148 62.02 140.067 62.3111 140.07 62.6407C140.067 62.9532 140.142 63.2259 140.296 63.4589C140.452 63.6918 140.675 63.8722 140.965 64.0001C141.255 64.1279 141.598 64.1918 141.996 64.1918ZM141.996 60.0498C142.309 60.0498 142.586 59.9873 142.827 59.8623C143.071 59.7373 143.263 59.5626 143.402 59.3381C143.542 59.1137 143.613 58.8509 143.615 58.5498C143.613 58.2543 143.543 57.9972 143.407 57.7785C143.27 57.5569 143.081 57.3864 142.84 57.2671C142.598 57.145 142.317 57.0839 141.996 57.0839C141.669 57.0839 141.384 57.145 141.14 57.2671C140.895 57.3864 140.706 57.5569 140.573 57.7785C140.439 57.9972 140.374 58.2543 140.377 58.5498C140.374 58.8509 140.441 59.1137 140.577 59.3381C140.716 59.5626 140.908 59.7373 141.152 59.8623C141.397 59.9873 141.678 60.0498 141.996 60.0498Z" fill="black"/>
<path d="M157.81 53.01V51.15" stroke="black"/>
<path d="M157.747 56.1634C158.105 56.1663 158.463 56.2344 158.821 56.368C159.179 56.5015 159.506 56.7231 159.801 57.0327C160.097 57.3396 160.334 57.7586 160.513 58.2898C160.692 58.8211 160.782 59.4873 160.782 60.2884C160.782 61.064 160.708 61.7529 160.56 62.3552C160.415 62.9546 160.205 63.4603 159.929 63.8722C159.657 64.2842 159.324 64.5967 158.932 64.8097C158.543 65.0228 158.103 65.1293 157.611 65.1293C157.122 65.1293 156.686 65.0327 156.303 64.8396C155.922 64.6435 155.61 64.3722 155.365 64.0256C155.124 63.6762 154.969 63.2714 154.901 62.8111H155.941C156.034 63.2117 156.22 63.5427 156.499 63.804C156.78 64.0626 157.151 64.1918 157.611 64.1918C158.284 64.1918 158.816 63.8978 159.205 63.3097C159.597 62.7217 159.793 61.8907 159.793 60.8168H159.725C159.566 61.0555 159.377 61.2614 159.158 61.4347C158.939 61.608 158.696 61.7415 158.429 61.8353C158.162 61.929 157.878 61.9759 157.577 61.9759C157.077 61.9759 156.618 61.8523 156.201 61.6052C155.786 61.3552 155.453 61.0129 155.203 60.5782C154.956 60.1407 154.833 59.6407 154.833 59.0782C154.833 58.5441 154.952 58.0555 155.191 57.6123C155.432 57.1663 155.77 56.8111 156.205 56.5469C156.642 56.2827 157.157 56.1549 157.747 56.1634ZM157.747 57.1009C157.389 57.1009 157.067 57.1904 156.78 57.3694C156.496 57.5455 156.27 57.7842 156.103 58.0853C155.938 58.3836 155.855 58.7146 155.855 59.0782C155.855 59.4418 155.935 59.7728 156.094 60.0711C156.256 60.3665 156.476 60.6023 156.755 60.7785C157.036 60.9518 157.355 61.0384 157.713 61.0384C157.983 61.0384 158.235 60.9859 158.468 60.8807C158.701 60.7728 158.904 60.6265 159.077 60.4418C159.253 60.2543 159.391 60.0427 159.49 59.8069C159.59 59.5682 159.639 59.3197 159.639 59.0611C159.639 58.7202 159.557 58.4006 159.392 58.1023C159.23 57.804 159.006 57.5626 158.719 57.3779C158.435 57.1932 158.111 57.1009 157.747 57.1009Z" fill="black"/>
<path d="M15.4716 1.54999V51.15" stroke="black"/>
<path d="M14.0435 51.15H15.4716" stroke="black"/>
<path d="M9.10329 59.5493C8.46124 59.5493 7.91437 59.3746 7.46266 59.0252C7.01096 58.6729 6.66579 58.1629 6.42715 57.4953C6.18851 56.8249 6.0692 56.0152 6.0692 55.0664C6.0692 54.1232 6.18851 53.3178 6.42715 52.6502C6.66863 51.9797 7.01522 51.4683 7.46692 51.1161C7.92147 50.761 8.46692 50.5834 9.10329 50.5834C9.73965 50.5834 10.2837 50.761 10.7354 51.1161C11.1899 51.4683 11.5365 51.9797 11.7752 52.6502C12.0166 53.3178 12.1374 54.1232 12.1374 55.0664C12.1374 56.0152 12.0181 56.8249 11.7794 57.4953C11.5408 58.1629 11.1956 58.6729 10.7439 59.0252C10.2922 59.3746 9.74533 59.5493 9.10329 59.5493ZM9.10329 58.6118C9.73965 58.6118 10.234 58.305 10.5862 57.6914C10.9385 57.0777 11.1147 56.2027 11.1147 55.0664C11.1147 54.3107 11.0337 53.6672 10.8718 53.136C10.7127 52.6047 10.4825 52.1999 10.1814 51.9215C9.88312 51.6431 9.52374 51.5039 9.10329 51.5039C8.47261 51.5039 7.97971 51.8149 7.62459 52.4371C7.26948 53.0564 7.09192 53.9328 7.09192 55.0664C7.09192 55.822 7.17147 56.4641 7.33056 56.9925C7.48965 57.5209 7.71834 57.9229 8.01664 58.1985C8.31778 58.474 8.67999 58.6118 9.10329 58.6118Z" fill="black"/>
<path d="M14.0433 38.75H15.4715" stroke="black"/>
<path d="M6.491 47.03V46.263L9.37168 43.1096C9.70975 42.7403 9.98816 42.4192 10.2069 42.1465C10.4257 41.8709 10.5876 41.6124 10.6927 41.3709C10.8007 41.1266 10.8546 40.8709 10.8546 40.6039C10.8546 40.2971 10.7808 40.0314 10.633 39.807C10.4882 39.5826 10.2893 39.4093 10.0365 39.2871C9.78361 39.165 9.49952 39.1039 9.18418 39.1039C8.84895 39.1039 8.55634 39.1735 8.30634 39.3127C8.05918 39.4491 7.86742 39.6408 7.73105 39.888C7.59753 40.1351 7.53077 40.4249 7.53077 40.7573H6.52509C6.52509 40.2459 6.64299 39.7971 6.87878 39.4107C7.11458 39.0243 7.4356 38.7232 7.84185 38.5073C8.25094 38.2914 8.70975 38.1834 9.21827 38.1834C9.72963 38.1834 10.1828 38.2914 10.5776 38.5073C10.9725 38.7232 11.2822 39.0144 11.5066 39.3809C11.7311 39.7474 11.8433 40.155 11.8433 40.6039C11.8433 40.9249 11.785 41.2388 11.6686 41.5457C11.5549 41.8496 11.3561 42.1891 11.072 42.5641C10.7907 42.9363 10.4001 43.3908 9.90009 43.9278L7.93986 46.0243V46.0925H11.9967V47.03H6.491ZM9.18311 62.1493C8.68311 62.1493 8.23283 62.0499 7.83226 61.8511C7.43169 61.6522 7.11067 61.3795 6.86919 61.0329C6.62772 60.6863 6.49561 60.2914 6.47289 59.8482H7.49561C7.53539 60.2431 7.71436 60.5698 8.03254 60.8283C8.35357 61.084 8.73709 61.2118 9.18311 61.2118C9.54107 61.2118 9.85925 61.128 10.1377 60.9604C10.4189 60.7928 10.6391 60.5627 10.7982 60.2701C10.9601 59.9746 11.0411 59.6408 11.0411 59.2687C11.0411 58.888 10.9573 58.5485 10.7896 58.2502C10.6249 57.9491 10.3976 57.7118 10.1078 57.5386C9.81806 57.3653 9.48709 57.2772 9.11493 57.2743C8.84789 57.2715 8.57374 57.3127 8.29249 57.3979C8.01124 57.4803 7.7797 57.5868 7.59789 57.7175L6.60925 57.5982L7.13766 53.3028H11.6717V54.2403H8.02402L7.7172 56.8141H7.76834C7.94732 56.6721 8.17175 56.5542 8.44164 56.4604C8.71152 56.3667 8.99277 56.3198 9.28539 56.3198C9.81948 56.3198 10.2953 56.4476 10.7129 56.7033C11.1334 56.9562 11.4629 57.3028 11.7016 57.7431C11.9431 58.1834 12.0638 58.6863 12.0638 59.2516C12.0638 59.8084 11.9388 60.3056 11.6888 60.7431C11.4416 61.1778 11.1007 61.5215 10.6661 61.7743C10.2314 62.0243 9.73709 62.1493 9.18311 62.1493ZM9.10321 77.1493C8.46117 77.1493 7.91429 76.9746 7.46259 76.6252C7.01088 76.2729 6.66571 75.763 6.42708 75.0954C6.18844 74.4249 6.06912 73.6153 6.06912 72.6664C6.06912 71.7232 6.18844 70.9178 6.42708 70.2502C6.66855 69.5797 7.01514 69.0684 7.46685 68.7161C7.92139 68.361 8.46685 68.1834 9.10321 68.1834C9.73958 68.1834 10.2836 68.361 10.7353 68.7161C11.1899 69.0684 11.5365 69.5797 11.7751 70.2502C12.0166 70.9178 12.1373 71.7232 12.1373 72.6664C12.1373 73.6153 12.018 74.4249 11.7793 75.0954C11.5407 75.763 11.1955 76.2729 10.7438 76.6252C10.2921 76.9746 9.74526 77.1493 9.10321 77.1493ZM9.10321 76.2118C9.73958 76.2118 10.2339 75.905 10.5862 75.2914C10.9384 74.6778 11.1146 73.8028 11.1146 72.6664C11.1146 71.9107 11.0336 71.2672 10.8717 70.736C10.7126 70.2047 10.4825 69.7999 10.1813 69.5215C9.88304 69.2431 9.52367 69.1039 9.10321 69.1039C8.47253 69.1039 7.97963 69.415 7.62452 70.0371C7.26941 70.6564 7.09185 71.5329 7.09185 72.6664C7.09185 73.4221 7.17139 74.0641 7.33049 74.5925C7.48958 75.1209 7.71827 75.5229 8.01656 75.7985C8.3177 76.0741 8.67992 76.2118 9.10321 76.2118Z" fill="black"/>
<path d="M14.0433 26.35H15.4715" stroke="black"/>
<path d="M9.18311 34.7493C8.68311 34.7493 8.23283 34.6499 7.83226 34.451C7.43169 34.2522 7.11067 33.9794 6.86919 33.6328C6.62772 33.2863 6.49561 32.8914 6.47289 32.4482H7.49561C7.53539 32.8431 7.71436 33.1698 8.03254 33.4283C8.35357 33.684 8.73709 33.8118 9.18311 33.8118C9.54107 33.8118 9.85925 33.728 10.1377 33.5604C10.4189 33.3928 10.6391 33.1627 10.7982 32.8701C10.9601 32.5746 11.0411 32.2408 11.0411 31.8686C11.0411 31.488 10.9573 31.1485 10.7896 30.8502C10.6249 30.549 10.3976 30.3118 10.1078 30.1385C9.81806 29.9652 9.48709 29.8772 9.11493 29.8743C8.84789 29.8715 8.57374 29.9127 8.29249 29.9979C8.01124 30.0803 7.7797 30.1868 7.59789 30.3175L6.60925 30.1982L7.13766 25.9027H11.6717V26.8402H8.02402L7.7172 29.4141H7.76834C7.94732 29.2721 8.17175 29.1542 8.44164 29.0604C8.71152 28.9667 8.99277 28.9198 9.28539 28.9198C9.81948 28.9198 10.2953 29.0476 10.7129 29.3033C11.1334 29.5561 11.4629 29.9027 11.7016 30.3431C11.9431 30.7834 12.0638 31.2863 12.0638 31.8516C12.0638 32.4084 11.9388 32.9056 11.6888 33.3431C11.4416 33.7777 11.1007 34.1215 10.6661 34.3743C10.2314 34.6243 9.73709 34.7493 9.18311 34.7493ZM9.10321 49.7493C8.46117 49.7493 7.91429 49.5746 7.46259 49.2252C7.01088 48.8729 6.66571 48.363 6.42708 47.6953C6.18844 47.0249 6.06912 46.2152 6.06912 45.2664C6.06912 44.3232 6.18844 43.5178 6.42708 42.8502C6.66855 42.1797 7.01514 41.6684 7.46685 41.3161C7.92139 40.961 8.46685 40.7834 9.10321 40.7834C9.73958 40.7834 10.2836 40.961 10.7353 41.3161C11.1899 41.6684 11.5365 42.1797 11.7751 42.8502C12.0166 43.5178 12.1373 44.3232 12.1373 45.2664C12.1373 46.2152 12.018 47.0249 11.7793 47.6953C11.5407 48.363 11.1955 48.8729 10.7438 49.2252C10.2921 49.5746 9.74526 49.7493 9.10321 49.7493ZM9.10321 48.8118C9.73958 48.8118 10.2339 48.505 10.5862 47.8914C10.9384 47.2777 11.1146 46.4027 11.1146 45.2664C11.1146 44.5107 11.0336 43.8672 10.8717 43.336C10.7126 42.8047 10.4825 42.3999 10.1813 42.1215C9.88304 41.8431 9.52367 41.7039 9.10321 41.7039C8.47253 41.7039 7.97963 42.0149 7.62452 42.6371C7.26941 43.2564 7.09185 44.1328 7.09185 45.2664C7.09185 46.0221 7.17139 46.6641 7.33049 47.1925C7.48958 47.7209 7.71827 48.1229 8.01656 48.3985C8.3177 48.674 8.67992 48.8118 9.10321 48.8118ZM9.10321 64.7493C8.46117 64.7493 7.91429 64.5746 7.46259 64.2252C7.01088 63.8729 6.66571 63.363 6.42708 62.6953C6.18844 62.0249 6.06912 61.2152 6.06912 60.2664C6.06912 59.3232 6.18844 58.5178 6.42708 57.8502C6.66855 57.1797 7.01514 56.6684 7.46685 56.3161C7.92139 55.961 8.46685 55.7834 9.10321 55.7834C9.73958 55.7834 10.2836 55.961 10.7353 56.3161C11.1899 56.6684 11.5365 57.1797 11.7751 57.8502C12.0166 58.5178 12.1373 59.3232 12.1373 60.2664C12.1373 61.2152 12.018 62.0249 11.7793 62.6953C11.5407 63.363 11.1955 63.8729 10.7438 64.2252C10.2921 64.5746 9.74526 64.7493 9.10321 64.7493ZM9.10321 63.8118C9.73958 63.8118 10.2339 63.505 10.5862 62.8914C10.9384 62.2777 11.1146 61.4027 11.1146 60.2664C11.1146 59.5107 11.0336 58.8672 10.8717 58.336C10.7126 57.8047 10.4825 57.3999 10.1813 57.1215C9.88304 56.8431 9.52367 56.7039 9.10321 56.7039C8.47253 56.7039 7.97963 57.0149 7.62452 57.6371C7.26941 58.2564 7.09185 59.1328 7.09185 60.2664C7.09185 61.0221 7.17139 61.6641 7.33049 62.1925C7.48958 62.7209 7.71827 63.1229 8.01656 63.3985C8.3177 63.674 8.67992 63.8118 9.10321 63.8118Z" fill="black"/>
<path d="M14.0433 13.95H15.4715" stroke="black"/>
<path d="M7.29108 22.23L11.1945 14.5084V14.4402H6.69449V13.5027H12.2854V14.4913L8.39903 22.23H7.29108ZM9.18313 37.3493C8.68313 37.3493 8.23284 37.2499 7.83227 37.051C7.4317 36.8521 7.11068 36.5794 6.8692 36.2328C6.62773 35.8862 6.49563 35.4913 6.4729 35.0482H7.49563C7.5354 35.443 7.71438 35.7698 8.03256 36.0283C8.35358 36.284 8.7371 36.4118 9.18313 36.4118C9.54108 36.4118 9.85926 36.328 10.1377 36.1604C10.4189 35.9928 10.6391 35.7627 10.7982 35.47C10.9601 35.1746 11.0411 34.8408 11.0411 34.4686C11.0411 34.0879 10.9573 33.7484 10.7897 33.4502C10.6249 33.149 10.3976 32.9118 10.1078 32.7385C9.81807 32.5652 9.4871 32.4771 9.11494 32.4743C8.8479 32.4715 8.57375 32.5127 8.2925 32.5979C8.01125 32.6803 7.77972 32.7868 7.5979 32.9175L6.60926 32.7982L7.13767 28.5027H11.6718V29.4402H8.02403L7.71722 32.0141H7.76835C7.94733 31.872 8.17176 31.7541 8.44165 31.6604C8.71153 31.5666 8.99278 31.5198 9.2854 31.5198C9.81949 31.5198 10.2953 31.6476 10.713 31.9033C11.1334 32.1561 11.463 32.5027 11.7016 32.943C11.9431 33.3834 12.0638 33.8862 12.0638 34.4516C12.0638 35.0084 11.9388 35.5055 11.6888 35.943C11.4416 36.3777 11.1007 36.7215 10.6661 36.9743C10.2314 37.2243 9.7371 37.3493 9.18313 37.3493ZM9.10322 52.3493C8.46118 52.3493 7.9143 52.1746 7.4626 51.8252C7.0109 51.4729 6.66572 50.9629 6.42709 50.2953C6.18845 49.6249 6.06913 48.8152 6.06913 47.8663C6.06913 46.9232 6.18845 46.1178 6.42709 45.4502C6.66857 44.7797 7.01516 44.2683 7.46686 43.9161C7.92141 43.5609 8.46686 43.3834 9.10322 43.3834C9.73959 43.3834 10.2836 43.5609 10.7353 43.9161C11.1899 44.2683 11.5365 44.7797 11.7751 45.4502C12.0166 46.1178 12.1373 46.9232 12.1373 47.8663C12.1373 48.8152 12.018 49.6249 11.7794 50.2953C11.5407 50.9629 11.1956 51.4729 10.7438 51.8252C10.2921 52.1746 9.74527 52.3493 9.10322 52.3493ZM9.10322 51.4118C9.73959 51.4118 10.2339 51.105 10.5862 50.4913C10.9385 49.8777 11.1146 49.0027 11.1146 47.8663C11.1146 47.1107 11.0336 46.4672 10.8717 45.9359C10.7126 45.4047 10.4825 44.9999 10.1813 44.7215C9.88305 44.443 9.52368 44.3038 9.10322 44.3038C8.47254 44.3038 7.97965 44.6149 7.62453 45.2371C7.26942 45.8564 7.09186 46.7328 7.09186 47.8663C7.09186 48.622 7.17141 49.2641 7.3305 49.7925C7.48959 50.3209 7.71828 50.7229 8.01658 50.9984C8.31771 51.274 8.67993 51.4118 9.10322 51.4118Z" fill="black"/>
<path d="M14.0433 1.54999H15.4715" stroke="black"/>
<path d="M11.2467 2.40328V11.1306H10.1899V3.51124H10.1388L8.00809 4.92601V3.85214L10.1899 2.40328H11.2467ZM9.10326 26.2499C8.46121 26.2499 7.91434 26.0752 7.46263 25.7257C7.01093 25.3735 6.66576 24.8635 6.42712 24.1959C6.18848 23.5254 6.06916 22.7158 6.06916 21.7669C6.06916 20.8237 6.18848 20.0183 6.42712 19.3507C6.6686 18.6803 7.01519 18.1689 7.46689 17.8166C7.92144 17.4615 8.46689 17.284 9.10326 17.284C9.73962 17.284 10.2837 17.4615 10.7354 17.8166C11.1899 18.1689 11.5365 18.6803 11.7751 19.3507C12.0166 20.0183 12.1373 20.8237 12.1373 21.7669C12.1373 22.7158 12.018 23.5254 11.7794 24.1959C11.5408 24.8635 11.1956 25.3735 10.7439 25.7257C10.2922 26.0752 9.7453 26.2499 9.10326 26.2499ZM9.10326 25.3124C9.73962 25.3124 10.2339 25.0056 10.5862 24.3919C10.9385 23.7783 11.1146 22.9033 11.1146 21.7669C11.1146 21.0112 11.0337 20.3678 10.8717 19.8365C10.7126 19.3053 10.4825 18.9004 10.1814 18.622C9.88309 18.3436 9.52371 18.2044 9.10326 18.2044C8.47257 18.2044 7.97968 18.5155 7.62456 19.1377C7.26945 19.757 7.09189 20.6334 7.09189 21.7669C7.09189 22.5226 7.17144 23.1646 7.33053 23.6931C7.48962 24.2215 7.71831 24.6235 8.01661 24.899C8.31774 25.1746 8.67996 25.3124 9.10326 25.3124ZM9.10326 41.2499C8.46121 41.2499 7.91434 41.0752 7.46263 40.7257C7.01093 40.3735 6.66576 39.8635 6.42712 39.1959C6.18848 38.5254 6.06916 37.7158 6.06916 36.7669C6.06916 35.8237 6.18848 35.0183 6.42712 34.3507C6.6686 33.6803 7.01519 33.1689 7.46689 32.8166C7.92144 32.4615 8.46689 32.284 9.10326 32.284C9.73962 32.284 10.2837 32.4615 10.7354 32.8166C11.1899 33.1689 11.5365 33.6803 11.7751 34.3507C12.0166 35.0183 12.1373 35.8237 12.1373 36.7669C12.1373 37.7158 12.018 38.5254 11.7794 39.1959C11.5408 39.8635 11.1956 40.3735 10.7439 40.7257C10.2922 41.0752 9.7453 41.2499 9.10326 41.2499ZM9.10326 40.3124C9.73962 40.3124 10.2339 40.0056 10.5862 39.3919C10.9385 38.7783 11.1146 37.9033 11.1146 36.7669C11.1146 36.0112 11.0337 35.3678 10.8717 34.8365C10.7126 34.3053 10.4825 33.9004 10.1814 33.622C9.88309 33.3436 9.52371 33.2044 9.10326 33.2044C8.47257 33.2044 7.97968 33.5155 7.62456 34.1377C7.26945 34.757 7.09189 35.6334 7.09189 36.7669C7.09189 37.5226 7.17144 38.1646 7.33053 38.6931C7.48962 39.2215 7.71831 39.6235 8.01661 39.899C8.31774 40.1746 8.67996 40.3124 9.10326 40.3124ZM9.10326 56.2499C8.46121 56.2499 7.91434 56.0752 7.46263 55.7257C7.01093 55.3735 6.66576 54.8635 6.42712 54.1959C6.18848 53.5254 6.06916 52.7158 6.06916 51.7669C6.06916 50.8237 6.18848 50.0183 6.42712 49.3507C6.6686 48.6803 7.01519 48.1689 7.46689 47.8166C7.92144 47.4615 8.46689 47.284 9.10326 47.284C9.73962 47.284 10.2837 47.4615 10.7354 47.8166C11.1899 48.1689 11.5365 48.6803 11.7751 49.3507C12.0166 50.0183 12.1373 50.8237 12.1373 51.7669C12.1373 52.7158 12.018 53.5254 11.7794 54.1959C11.5408 54.8635 11.1956 55.3735 10.7439 55.7257C10.2922 56.0752 9.7453 56.2499 9.10326 56.2499ZM9.10326 55.3124C9.73962 55.3124 10.2339 55.0056 10.5862 54.3919C10.9385 53.7783 11.1146 52.9033 11.1146 51.7669C11.1146 51.0112 11.0337 50.3678 10.8717 49.8365C10.7126 49.3053 10.4825 48.9004 10.1814 48.622C9.88309 48.3436 9.52371 48.2044 9.10326 48.2044C8.47257 48.2044 7.97968 48.5155 7.62456 49.1377C7.26945 49.757 7.09189 50.6334 7.09189 51.7669C7.09189 52.5226 7.17144 53.1646 7.33053 53.6931C7.48962 54.2215 7.71831 54.6235 8.01661 54.899C8.31774 55.1746 8.67996 55.3124 9.10326 55.3124Z" fill="black"/>
<path d="M15.4716 51.15H157.81" stroke="#CCCCCC"/>
<path d="M15.4716 38.75H157.81" stroke="#CCCCCC"/>
<path d="M15.4716 26.35H157.81" stroke="#CCCCCC"/>
<path d="M15.4716 13.95H157.81" stroke="#CCCCCC"/>
<path d="M15.4716 1.54999H157.81" stroke="#CCCCCC"/>
<path d="M15.4716 1.54999V51.15" stroke="#CCCCCC"/>
<path d="M31.2869 1.54999V51.15" stroke="#CCCCCC"/>
<path d="M47.1023 1.54999V51.15" stroke="#CCCCCC"/>
<path d="M62.9177 1.54999V51.15" stroke="#CCCCCC"/>
<path d="M78.733 1.54999V51.15" stroke="#CCCCCC"/>
<path d="M94.5485 1.54999V51.15" stroke="#CCCCCC"/>
<path d="M110.364 1.54999V51.15" stroke="#CCCCCC"/>
<path d="M126.179 1.54999V51.15" stroke="#CCCCCC"/>
<path d="M141.995 1.54999V51.15" stroke="#CCCCCC"/>
<path d="M157.81 1.54999V51.15" stroke="#CCCCCC"/>
<path d="M15.4716 22.878L31.2869 17.6204L47.1023 10.0812L62.9177 25.1596L78.733 20.9932L94.5484 3.03796L110.364 14.7436L126.179 12.6108L141.995 19.4556L157.81 35.4268" stroke="#A6B4E3"/>
<path d="M15.4715 23.808C15.8659 23.808 16.1856 23.3916 16.1856 22.878C16.1856 22.3644 15.8659 21.948 15.4715 21.948C15.0771 21.948 14.7574 22.3644 14.7574 22.878C14.7574 23.3916 15.0771 23.808 15.4715 23.808Z" fill="white" stroke="#A6B4E3"/>
<path d="M31.2869 18.5504C31.6813 18.5504 32.001 18.134 32.001 17.6204C32.001 17.1067 31.6813 16.6904 31.2869 16.6904C30.8926 16.6904 30.5729 17.1067 30.5729 17.6204C30.5729 18.134 30.8926 18.5504 31.2869 18.5504Z" fill="white" stroke="#A6B4E3"/>
<path d="M47.1023 11.0112C47.4966 11.0112 47.8163 10.5948 47.8163 10.0812C47.8163 9.56756 47.4966 9.15118 47.1023 9.15118C46.7079 9.15118 46.3882 9.56756 46.3882 10.0812C46.3882 10.5948 46.7079 11.0112 47.1023 11.0112Z" fill="white" stroke="#A6B4E3"/>
<path d="M62.9177 26.0896C63.3121 26.0896 63.6318 25.6732 63.6318 25.1596C63.6318 24.6459 63.3121 24.2296 62.9177 24.2296C62.5233 24.2296 62.2036 24.6459 62.2036 25.1596C62.2036 25.6732 62.5233 26.0896 62.9177 26.0896Z" fill="white" stroke="#A6B4E3"/>
<path d="M78.733 21.9232C79.1274 21.9232 79.4471 21.5068 79.4471 20.9932C79.4471 20.4795 79.1274 20.0632 78.733 20.0632C78.3386 20.0632 78.0189 20.4795 78.0189 20.9932C78.0189 21.5068 78.3386 21.9232 78.733 21.9232Z" fill="white" stroke="#A6B4E3"/>
<path d="M94.5484 3.96797C94.9428 3.96797 95.2625 3.5516 95.2625 3.03797C95.2625 2.52435 94.9428 2.10797 94.5484 2.10797C94.154 2.10797 93.8344 2.52435 93.8344 3.03797C93.8344 3.5516 94.154 3.96797 94.5484 3.96797Z" fill="white" stroke="#A6B4E3"/>
<path d="M110.364 15.6736C110.758 15.6736 111.078 15.2572 111.078 14.7436C111.078 14.23 110.758 13.8136 110.364 13.8136C109.969 13.8136 109.65 14.23 109.65 14.7436C109.65 15.2572 109.969 15.6736 110.364 15.6736Z" fill="white" stroke="#A6B4E3"/>
<path d="M126.179 13.5408C126.574 13.5408 126.893 13.1244 126.893 12.6108C126.893 12.0972 126.574 11.6808 126.179 11.6808C125.785 11.6808 125.465 12.0972 125.465 12.6108C125.465 13.1244 125.785 13.5408 126.179 13.5408Z" fill="white" stroke="#A6B4E3"/>
<path d="M141.994 20.3856C142.389 20.3856 142.709 19.9692 142.709 19.4556C142.709 18.9419 142.389 18.5256 141.994 18.5256C141.6 18.5256 141.28 18.9419 141.28 19.4556C141.28 19.9692 141.6 20.3856 141.994 20.3856Z" fill="white" stroke="#A6B4E3"/>
<path d="M157.81 36.3568C158.204 36.3568 158.524 35.9404 158.524 35.4268C158.524 34.9131 158.204 34.4968 157.81 34.4968C157.415 34.4968 157.096 34.9131 157.096 35.4268C157.096 35.9404 157.415 36.3568 157.81 36.3568Z" fill="white" stroke="#A6B4E3"/>
<path d="M15.4716 47.0332L31.2869 48.3724L47.1023 20.0508L62.9177 8.49402L78.733 27.8876L94.5484 27.6396L110.364 15.0412L126.179 29.9708L141.995 20.0012L157.81 34.286" stroke="#7D0892"/>
<path d="M15.4715 47.9632C15.8659 47.9632 16.1856 47.5468 16.1856 47.0332C16.1856 46.5196 15.8659 46.1032 15.4715 46.1032C15.0771 46.1032 14.7574 46.5196 14.7574 47.0332C14.7574 47.5468 15.0771 47.9632 15.4715 47.9632Z" fill="white" stroke="#7D0892"/>
<path d="M31.2869 49.3025C31.6813 49.3025 32.001 48.8861 32.001 48.3724C32.001 47.8588 31.6813 47.4424 31.2869 47.4424C30.8926 47.4424 30.5729 47.8588 30.5729 48.3724C30.5729 48.8861 30.8926 49.3025 31.2869 49.3025Z" fill="white" stroke="#7D0892"/>
<path d="M47.1023 20.9808C47.4966 20.9808 47.8163 20.5645 47.8163 20.0508C47.8163 19.5372 47.4966 19.1208 47.1023 19.1208C46.7079 19.1208 46.3882 19.5372 46.3882 20.0508C46.3882 20.5645 46.7079 20.9808 47.1023 20.9808Z" fill="white" stroke="#7D0892"/>
<path d="M62.9177 9.42403C63.3121 9.42403 63.6318 9.00765 63.6318 8.49403C63.6318 7.9804 63.3121 7.56403 62.9177 7.56403C62.5233 7.56403 62.2036 7.9804 62.2036 8.49403C62.2036 9.00765 62.5233 9.42403 62.9177 9.42403Z" fill="white" stroke="#7D0892"/>
<path d="M78.733 28.8176C79.1274 28.8176 79.4471 28.4013 79.4471 27.8876C79.4471 27.374 79.1274 26.9576 78.733 26.9576C78.3386 26.9576 78.0189 27.374 78.0189 27.8876C78.0189 28.4013 78.3386 28.8176 78.733 28.8176Z" fill="white" stroke="#7D0892"/>
<path d="M94.5484 28.5697C94.9428 28.5697 95.2625 28.1533 95.2625 27.6397C95.2625 27.126 94.9428 26.7097 94.5484 26.7097C94.154 26.7097 93.8344 27.126 93.8344 27.6397C93.8344 28.1533 94.154 28.5697 94.5484 28.5697Z" fill="white" stroke="#7D0892"/>
<path d="M110.364 15.9712C110.758 15.9712 111.078 15.5548 111.078 15.0412C111.078 14.5276 110.758 14.1112 110.364 14.1112C109.969 14.1112 109.65 14.5276 109.65 15.0412C109.65 15.5548 109.969 15.9712 110.364 15.9712Z" fill="white" stroke="#7D0892"/>
<path d="M126.179 30.9008C126.574 30.9008 126.893 30.4845 126.893 29.9708C126.893 29.4572 126.574 29.0408 126.179 29.0408C125.785 29.0408 125.465 29.4572 125.465 29.9708C125.465 30.4845 125.785 30.9008 126.179 30.9008Z" fill="white" stroke="#7D0892"/>
<path d="M141.994 20.9312C142.389 20.9312 142.709 20.5149 142.709 20.0012C142.709 19.4876 142.389 19.0712 141.994 19.0712C141.6 19.0712 141.28 19.4876 141.28 20.0012C141.28 20.5149 141.6 20.9312 141.994 20.9312Z" fill="white" stroke="#7D0892"/>
<path d="M157.81 35.216C158.204 35.216 158.524 34.7996 158.524 34.286C158.524 33.7724 158.204 33.356 157.81 33.356C157.415 33.356 157.096 33.7724 157.096 34.286C157.096 34.7996 157.415 35.216 157.81 35.216Z" fill="white" stroke="#7D0892"/>
</g>
<defs>
<clipPath id="clip0_561_286">
<rect width="159" height="62" fill="white"/>
</clipPath>
</defs>
</svg>
