<svg width="112" height="72" viewBox="0 0 112 72" fill="none" xmlns="http://www.w3.org/2000/svg">
<g clip-path="url(#clip0_561_194)">
<path d="M10.8982 59.4H111.162" stroke="black"/>
<path d="M10.8982 61.56V59.4" stroke="black"/>
<path d="M10.8982 73.6794C10.2562 73.6794 9.70928 73.5047 9.25757 73.1552C8.80587 72.803 8.4607 72.293 8.22206 71.6254C7.98342 70.9549 7.86411 70.1453 7.86411 69.1964C7.86411 68.2532 7.98342 67.4478 8.22206 66.7802C8.46354 66.1098 8.81013 65.5984 9.26183 65.2461C9.71638 64.891 10.2618 64.7135 10.8982 64.7135C11.5346 64.7135 12.0786 64.891 12.5303 65.2461C12.9848 65.5984 13.3314 66.1098 13.5701 66.7802C13.8116 67.4478 13.9323 68.2532 13.9323 69.1964C13.9323 70.1453 13.813 70.9549 13.5743 71.6254C13.3357 72.293 12.9905 72.803 12.5388 73.1552C12.0871 73.5047 11.5402 73.6794 10.8982 73.6794ZM10.8982 72.7419C11.5346 72.7419 12.0289 72.4351 12.3812 71.8214C12.7334 71.2078 12.9096 70.3328 12.9096 69.1964C12.9096 68.4407 12.8286 67.7973 12.6667 67.266C12.5076 66.7348 12.2775 66.3299 11.9763 66.0515C11.678 65.7731 11.3187 65.6339 10.8982 65.6339C10.2675 65.6339 9.77462 65.945 9.4195 66.5672C9.06439 67.1865 8.88683 68.0629 8.88683 69.1964C8.88683 69.9521 8.96638 70.5941 9.12547 71.1226C9.28456 71.651 9.51325 72.053 9.81155 72.3285C10.1127 72.6041 10.4749 72.7419 10.8982 72.7419Z" fill="black"/>
<path d="M35.9641 61.56V59.4" stroke="black"/>
<path d="M35.9961 73.6794C35.4336 73.6794 34.9322 73.5828 34.4918 73.3896C34.0543 73.1964 33.7063 72.928 33.4478 72.5842C33.1921 72.2376 33.0529 71.8356 33.0302 71.3782H34.104C34.1268 71.6595 34.2234 71.9024 34.3938 72.1069C34.5643 72.3086 34.7873 72.4649 35.0628 72.5757C35.3384 72.6865 35.6438 72.7419 35.979 72.7419C36.354 72.7419 36.6864 72.6765 36.9762 72.5459C37.266 72.4152 37.4932 72.2334 37.658 72.0004C37.8228 71.7674 37.9052 71.4976 37.9052 71.1907C37.9052 70.8697 37.8256 70.587 37.6665 70.3427C37.5074 70.0956 37.2745 69.9024 36.9677 69.7632C36.6609 69.624 36.2859 69.5544 35.8427 69.5544H35.1438V68.6169H35.8427C36.1893 68.6169 36.4932 68.5544 36.7546 68.4294C37.0188 68.3044 37.2248 68.1282 37.3725 67.901C37.5231 67.6737 37.5984 67.4066 37.5984 67.0998C37.5984 66.8044 37.533 66.5473 37.4023 66.3285C37.2716 66.1098 37.087 65.9393 36.8484 65.8172C36.6126 65.695 36.3341 65.6339 36.0131 65.6339C35.712 65.6339 35.4279 65.6893 35.1609 65.8001C34.8966 65.9081 34.6807 66.0657 34.5131 66.2731C34.3455 66.4777 34.2546 66.7248 34.2404 67.0146H33.2177C33.2347 66.5572 33.3725 66.1566 33.631 65.8129C33.8895 65.4663 34.2276 65.1964 34.6452 65.0032C35.0657 64.8101 35.5273 64.7135 36.0302 64.7135C36.5699 64.7135 37.033 64.8228 37.4194 65.0416C37.8057 65.2575 38.1026 65.543 38.31 65.8981C38.5174 66.2532 38.6211 66.6368 38.6211 67.0487C38.6211 67.5402 38.4918 67.9592 38.2333 68.3058C37.9776 68.6524 37.6296 68.8924 37.1893 69.026V69.0941C37.7404 69.1851 38.1708 69.4194 38.4805 69.7973C38.7901 70.1723 38.9449 70.6368 38.9449 71.1907C38.9449 71.6652 38.8157 72.0913 38.5572 72.4691C38.3015 72.8441 37.952 73.1396 37.5089 73.3555C37.0657 73.5714 36.5614 73.6794 35.9961 73.6794Z" fill="black"/>
<path d="M61.0299 61.56V59.4" stroke="black"/>
<path d="M61.0869 73.6794C60.7289 73.6737 60.371 73.6055 60.013 73.4748C59.6551 73.3441 59.3284 73.124 59.0329 72.8143C58.7375 72.5018 58.5003 72.0799 58.3213 71.5487C58.1423 71.0146 58.0528 70.3441 58.0528 69.5373C58.0528 68.7646 58.1253 68.0799 58.2701 67.4834C58.415 66.8839 58.6253 66.3797 58.9008 65.9706C59.1764 65.5586 59.5088 65.2461 59.898 65.0331C60.29 64.82 60.7318 64.7135 61.2233 64.7135C61.7119 64.7135 62.1466 64.8115 62.5272 65.0075C62.9108 65.2007 63.2233 65.4706 63.4647 65.8172C63.7062 66.1638 63.8625 66.5629 63.9335 67.0146H62.8937C62.7971 66.6226 62.6096 66.2973 62.3312 66.0388C62.0528 65.7802 61.6835 65.651 61.2233 65.651C60.5471 65.651 60.0145 65.945 59.6253 66.5331C59.2389 67.1211 59.0443 67.9464 59.0414 69.0089H59.1096C59.2687 68.7674 59.4576 68.5615 59.6764 68.391C59.898 68.2177 60.1423 68.0842 60.4093 67.9905C60.6764 67.8967 60.9591 67.8498 61.2574 67.8498C61.7574 67.8498 62.2147 67.9748 62.6295 68.2248C63.0443 68.472 63.3767 68.8143 63.6267 69.2518C63.8767 69.6865 64.0017 70.1851 64.0017 70.7476C64.0017 71.2873 63.8809 71.7816 63.6395 72.2305C63.398 72.6765 63.0585 73.0316 62.621 73.2959C62.1863 73.5572 61.675 73.6851 61.0869 73.6794ZM61.0869 72.7419C61.4449 72.7419 61.7659 72.6524 62.05 72.4734C62.3369 72.2944 62.5628 72.0544 62.7275 71.7532C62.8951 71.4521 62.9789 71.1169 62.9789 70.7476C62.9789 70.3868 62.898 70.0586 62.736 69.7632C62.577 69.4649 62.3568 69.2277 62.0755 69.0515C61.7971 68.8754 61.4789 68.7873 61.121 68.7873C60.8511 68.7873 60.5997 68.8413 60.3667 68.9493C60.1338 69.0544 59.9292 69.1993 59.7531 69.3839C59.5798 69.5686 59.4434 69.7802 59.344 70.0189C59.2446 70.2547 59.1949 70.5032 59.1949 70.7646C59.1949 71.1112 59.2758 71.4351 59.4378 71.7362C59.6025 72.0373 59.827 72.2802 60.111 72.4649C60.398 72.6495 60.7233 72.7419 61.0869 72.7419Z" fill="black"/>
<path d="M86.0958 61.56V59.4" stroke="black"/>
<path d="M86.0335 64.7135C86.3915 64.7163 86.7494 64.7845 87.1074 64.918C87.4653 65.0515 87.792 65.2731 88.0875 65.5828C88.3829 65.8896 88.6202 66.3086 88.7991 66.8399C88.9781 67.3711 89.0676 68.0373 89.0676 68.8385C89.0676 69.614 88.9937 70.303 88.846 70.9052C88.7011 71.5047 88.4909 72.0103 88.2153 72.4223C87.9426 72.8342 87.6102 73.1467 87.2182 73.3598C86.829 73.5728 86.3886 73.6794 85.8971 73.6794C85.4085 73.6794 84.9724 73.5828 84.5889 73.3896C84.2082 73.1936 83.8957 72.9223 83.6514 72.5757C83.4099 72.2263 83.2551 71.8214 83.1869 71.3612H84.2267C84.3204 71.7618 84.5065 72.0927 84.7849 72.3541C85.0662 72.6126 85.4369 72.7419 85.8971 72.7419C86.5704 72.7419 87.1017 72.4478 87.4909 71.8598C87.8829 71.2717 88.079 70.4407 88.079 69.3669H88.0108C87.8517 69.6055 87.6628 69.8115 87.444 69.9848C87.2253 70.1581 86.9824 70.2916 86.7153 70.3853C86.4483 70.4791 86.1642 70.526 85.8631 70.526C85.3631 70.526 84.9042 70.4024 84.4866 70.1552C84.0719 69.9052 83.7395 69.5629 83.4895 69.1282C83.2423 68.6907 83.1187 68.1907 83.1187 67.6282C83.1187 67.0941 83.2381 66.6055 83.4767 66.1623C83.7182 65.7163 84.0562 65.3612 84.4909 65.097C84.9284 64.8328 85.4426 64.7049 86.0335 64.7135ZM86.0335 65.651C85.6756 65.651 85.3531 65.7405 85.0662 65.9194C84.7821 66.0956 84.5562 66.3342 84.3886 66.6353C84.2239 66.9336 84.1415 67.2646 84.1415 67.6282C84.1415 67.9919 84.221 68.3228 84.3801 68.6211C84.542 68.9166 84.7622 69.1524 85.0406 69.3285C85.3219 69.5018 85.6415 69.5885 85.9994 69.5885C86.2693 69.5885 86.5207 69.5359 86.7537 69.4308C86.9866 69.3228 87.1898 69.1765 87.3631 68.9919C87.5392 68.8044 87.677 68.5927 87.7764 68.3569C87.8758 68.1183 87.9256 67.8697 87.9256 67.6112C87.9256 67.2703 87.8432 66.9507 87.6784 66.6524C87.5165 66.3541 87.292 66.1126 87.0051 65.928C86.721 65.7433 86.3971 65.651 86.0335 65.651Z" fill="black"/>
<path d="M111.162 61.56V59.4" stroke="black"/>
<path d="M111.841 64.8328V73.5601H110.784V65.9407H110.733L108.603 67.3555V66.2816L110.784 64.8328H111.841ZM107.929 88.5601V87.793L110.81 84.6396C111.148 84.2703 111.426 83.9493 111.645 83.6765C111.864 83.401 112.026 83.1424 112.131 82.901C112.239 82.6566 112.293 82.401 112.293 82.1339C112.293 81.8271 112.219 81.5615 112.071 81.337C111.926 81.1126 111.728 80.9393 111.475 80.8172C111.222 80.695 110.938 80.6339 110.622 80.6339C110.287 80.6339 109.995 80.7035 109.745 80.8427C109.497 80.9791 109.306 81.1709 109.169 81.418C109.036 81.6652 108.969 81.9549 108.969 82.2873H107.963C107.963 81.776 108.081 81.3271 108.317 80.9407C108.553 80.5544 108.874 80.2532 109.28 80.0373C109.689 79.8214 110.148 79.7135 110.657 79.7135C111.168 79.7135 111.621 79.8214 112.016 80.0373C112.411 80.2532 112.72 80.5444 112.945 80.9109C113.169 81.2774 113.282 81.6851 113.282 82.1339C113.282 82.4549 113.223 82.7689 113.107 83.0757C112.993 83.3797 112.794 83.7191 112.51 84.0941C112.229 84.4663 111.838 84.9209 111.338 85.4578L109.378 87.5544V87.6226H113.435V88.5601H107.929Z" fill="black"/>
<path d="M10.8982 1.80005V59.4" stroke="black"/>
<path d="M9.89233 59.4H10.8983" stroke="black"/>
<path d="M5.30396 67.1993C4.66192 67.1993 4.11504 67.0246 3.66334 66.6752C3.21163 66.3229 2.86646 65.813 2.62783 65.1454C2.38919 64.4749 2.26987 63.6652 2.26987 62.7164C2.26987 61.7732 2.38919 60.9678 2.62783 60.3002C2.8693 59.6297 3.2159 59.1184 3.6676 58.7661C4.12215 58.411 4.6676 58.2334 5.30396 58.2334C5.94033 58.2334 6.48436 58.411 6.93607 58.7661C7.39061 59.1184 7.7372 59.6297 7.97584 60.3002C8.21732 60.9678 8.33805 61.7732 8.33805 62.7164C8.33805 63.6652 8.21874 64.4749 7.9801 65.1454C7.74146 65.813 7.39629 66.3229 6.94459 66.6752C6.49288 67.0246 5.94601 67.1993 5.30396 67.1993ZM5.30396 66.2618C5.94033 66.2618 6.43465 65.955 6.78692 65.3414C7.13919 64.7277 7.31533 63.8527 7.31533 62.7164C7.31533 61.9607 7.23436 61.3172 7.07243 60.786C6.91334 60.2547 6.68323 59.8499 6.38209 59.5715C6.08379 59.2931 5.72442 59.1539 5.30396 59.1539C4.67328 59.1539 4.18038 59.465 3.82527 60.0871C3.47016 60.7064 3.2926 61.5829 3.2926 62.7164C3.2926 63.4721 3.37215 64.1141 3.53124 64.6425C3.69033 65.1709 3.91902 65.5729 4.21732 65.8485C4.51845 66.1241 4.88067 66.2618 5.30396 66.2618Z" fill="black"/>
<path d="M9.89221 45.0001H10.8982" stroke="black"/>
<path d="M2.6917 52.6801V51.913L5.57239 48.7596C5.91045 48.3903 6.18886 48.0693 6.40761 47.7965C6.62636 47.521 6.78829 47.2624 6.89341 47.021C7.00136 46.7766 7.05534 46.521 7.05534 46.2539C7.05534 45.9471 6.98148 45.6815 6.83375 45.457C6.68886 45.2326 6.49 45.0593 6.23716 44.9372C5.98432 44.815 5.70023 44.7539 5.38489 44.7539C5.04966 44.7539 4.75704 44.8235 4.50704 44.9627C4.25989 45.0991 4.06812 45.2908 3.93176 45.538C3.79824 45.7852 3.73148 46.0749 3.73148 46.4073H2.72579C2.72579 45.896 2.84369 45.4471 3.07949 45.0607C3.31528 44.6744 3.63631 44.3732 4.04256 44.1573C4.45165 43.9414 4.91045 43.8335 5.41898 43.8335C5.93034 43.8335 6.38346 43.9414 6.77835 44.1573C7.17324 44.3732 7.4829 44.6644 7.70733 45.0309C7.93176 45.3974 8.04398 45.8051 8.04398 46.2539C8.04398 46.5749 7.98574 46.8889 7.86926 47.1957C7.75562 47.4997 7.55676 47.8391 7.27267 48.2141C6.99142 48.5863 6.60079 49.0408 6.10079 49.5778L4.14057 51.6744V51.7426H8.19739V52.6801H2.6917ZM5.38382 67.7994C4.88382 67.7994 4.43354 67.6999 4.03297 67.5011C3.6324 67.3022 3.31138 67.0295 3.0699 66.6829C2.82842 66.3363 2.69632 65.9414 2.67359 65.4982H3.69632C3.73609 65.8931 3.91507 66.2198 4.23325 66.4783C4.55427 66.734 4.9378 66.8619 5.38382 66.8619C5.74177 66.8619 6.05996 66.7781 6.33837 66.6105C6.61962 66.4428 6.83979 66.2127 6.99888 65.9201C7.16081 65.6247 7.24177 65.2908 7.24177 64.9187C7.24177 64.538 7.15797 64.1985 6.99035 63.9002C6.82558 63.5991 6.59831 63.3619 6.30854 63.1886C6.01876 63.0153 5.6878 62.9272 5.31564 62.9244C5.04859 62.9215 4.77444 62.9627 4.49319 63.048C4.21194 63.1303 3.98041 63.2369 3.79859 63.3676L2.80996 63.2482L3.33837 58.9528H7.87246V59.8903H4.22473L3.91791 62.4641H3.96905C4.14802 62.3221 4.37246 62.2042 4.64234 62.1105C4.91223 62.0167 5.19348 61.9698 5.48609 61.9698C6.02018 61.9698 6.49604 62.0977 6.91365 62.3533C7.3341 62.6062 7.66365 62.9528 7.90229 63.3931C8.14376 63.8335 8.2645 64.3363 8.2645 64.9016C8.2645 65.4585 8.1395 65.9556 7.8895 66.3931C7.64234 66.8278 7.30143 67.1715 6.86677 67.4244C6.43212 67.6744 5.9378 67.7994 5.38382 67.7994ZM5.30392 82.7994C4.66187 82.7994 4.115 82.6247 3.66329 82.2752C3.21159 81.923 2.86642 81.413 2.62778 80.7454C2.38915 80.0749 2.26983 79.2653 2.26983 78.3164C2.26983 77.3732 2.38915 76.5678 2.62778 75.9002C2.86926 75.2298 3.21585 74.7184 3.66756 74.3661C4.1221 74.011 4.66756 73.8335 5.30392 73.8335C5.94028 73.8335 6.48432 74.011 6.93602 74.3661C7.39057 74.7184 7.73716 75.2298 7.97579 75.9002C8.21727 76.5678 8.33801 77.3732 8.33801 78.3164C8.33801 79.2653 8.21869 80.0749 7.98006 80.7454C7.74142 81.413 7.39625 81.923 6.94454 82.2752C6.49284 82.6247 5.94596 82.7994 5.30392 82.7994ZM5.30392 81.8619C5.94028 81.8619 6.4346 81.5551 6.78687 80.9414C7.13915 80.3278 7.31528 79.4528 7.31528 78.3164C7.31528 77.5607 7.23432 76.9173 7.07239 76.386C6.91329 75.8548 6.68318 75.4499 6.38204 75.1715C6.08375 74.8931 5.72437 74.7539 5.30392 74.7539C4.67324 74.7539 4.18034 75.065 3.82523 75.6872C3.47011 76.3065 3.29256 77.1829 3.29256 78.3164C3.29256 79.0721 3.3721 79.7141 3.53119 80.2426C3.69028 80.771 3.91898 81.173 4.21727 81.4485C4.51841 81.7241 4.88062 81.8619 5.30392 81.8619Z" fill="black"/>
<path d="M9.89221 30.6H10.8982" stroke="black"/>
<path d="M5.38382 38.3993C4.88382 38.3993 4.43354 38.2999 4.03297 38.1011C3.6324 37.9022 3.31138 37.6295 3.0699 37.2829C2.82842 36.9363 2.69632 36.5414 2.67359 36.0982H3.69632C3.73609 36.4931 3.91507 36.8198 4.23325 37.0783C4.55427 37.334 4.9378 37.4618 5.38382 37.4618C5.74177 37.4618 6.05996 37.378 6.33837 37.2104C6.61962 37.0428 6.83979 36.8127 6.99888 36.5201C7.16081 36.2246 7.24177 35.8908 7.24177 35.5187C7.24177 35.138 7.15797 34.7985 6.99035 34.5002C6.82558 34.1991 6.59831 33.9618 6.30854 33.7886C6.01876 33.6153 5.6878 33.5272 5.31564 33.5243C5.04859 33.5215 4.77444 33.5627 4.49319 33.6479C4.21194 33.7303 3.98041 33.8368 3.79859 33.9675L2.80996 33.8482L3.33837 29.5528H7.87246V30.4903H4.22473L3.91791 33.0641H3.96905C4.14802 32.9221 4.37246 32.8042 4.64234 32.7104C4.91223 32.6167 5.19348 32.5698 5.48609 32.5698C6.02018 32.5698 6.49604 32.6976 6.91365 32.9533C7.3341 33.2062 7.66365 33.5528 7.90229 33.9931C8.14376 34.4334 8.2645 34.9363 8.2645 35.5016C8.2645 36.0584 8.1395 36.5556 7.8895 36.9931C7.64234 37.4278 7.30143 37.7715 6.86677 38.0243C6.43212 38.2743 5.9378 38.3993 5.38382 38.3993ZM5.30392 53.3993C4.66187 53.3993 4.115 53.2246 3.66329 52.8752C3.21159 52.5229 2.86642 52.013 2.62778 51.3454C2.38915 50.6749 2.26983 49.8653 2.26983 48.9164C2.26983 47.9732 2.38915 47.1678 2.62778 46.5002C2.86926 45.8297 3.21585 45.3184 3.66756 44.9661C4.1221 44.611 4.66756 44.4334 5.30392 44.4334C5.94028 44.4334 6.48432 44.611 6.93602 44.9661C7.39057 45.3184 7.73716 45.8297 7.97579 46.5002C8.21727 47.1678 8.33801 47.9732 8.33801 48.9164C8.33801 49.8653 8.21869 50.6749 7.98006 51.3454C7.74142 52.013 7.39625 52.5229 6.94454 52.8752C6.49284 53.2246 5.94596 53.3993 5.30392 53.3993ZM5.30392 52.4618C5.94028 52.4618 6.4346 52.155 6.78687 51.5414C7.13915 50.9278 7.31528 50.0528 7.31528 48.9164C7.31528 48.1607 7.23432 47.5172 7.07239 46.986C6.91329 46.4547 6.68318 46.0499 6.38204 45.7715C6.08375 45.4931 5.72437 45.3539 5.30392 45.3539C4.67324 45.3539 4.18034 45.665 3.82523 46.2871C3.47011 46.9064 3.29256 47.7829 3.29256 48.9164C3.29256 49.6721 3.3721 50.3141 3.53119 50.8425C3.69028 51.3709 3.91898 51.7729 4.21727 52.0485C4.51841 52.3241 4.88062 52.4618 5.30392 52.4618ZM5.30392 68.3993C4.66187 68.3993 4.115 68.2246 3.66329 67.8752C3.21159 67.5229 2.86642 67.013 2.62778 66.3454C2.38915 65.6749 2.26983 64.8653 2.26983 63.9164C2.26983 62.9732 2.38915 62.1678 2.62778 61.5002C2.86926 60.8297 3.21585 60.3184 3.66756 59.9661C4.1221 59.611 4.66756 59.4334 5.30392 59.4334C5.94028 59.4334 6.48432 59.611 6.93602 59.9661C7.39057 60.3184 7.73716 60.8297 7.97579 61.5002C8.21727 62.1678 8.33801 62.9732 8.33801 63.9164C8.33801 64.8653 8.21869 65.6749 7.98006 66.3454C7.74142 67.013 7.39625 67.5229 6.94454 67.8752C6.49284 68.2246 5.94596 68.3993 5.30392 68.3993ZM5.30392 67.4618C5.94028 67.4618 6.4346 67.155 6.78687 66.5414C7.13915 65.9278 7.31528 65.0528 7.31528 63.9164C7.31528 63.1607 7.23432 62.5172 7.07239 61.986C6.91329 61.4547 6.68318 61.0499 6.38204 60.7715C6.08375 60.4931 5.72437 60.3539 5.30392 60.3539C4.67324 60.3539 4.18034 60.665 3.82523 61.2871C3.47011 61.9064 3.29256 62.7829 3.29256 63.9164C3.29256 64.6721 3.3721 65.3141 3.53119 65.8425C3.69028 66.3709 3.91898 66.7729 4.21727 67.0485C4.51841 67.3241 4.88062 67.4618 5.30392 67.4618Z" fill="black"/>
<path d="M9.89233 16.2001H10.8983" stroke="black"/>
<path d="M3.49183 23.8801L7.39524 16.1585V16.0903H2.89524V15.1528H8.48615V16.1414L4.59979 23.8801H3.49183ZM5.38388 38.9994C4.88388 38.9994 4.4336 38.9 4.03303 38.7011C3.63246 38.5022 3.31144 38.2295 3.06996 37.8829C2.82848 37.5363 2.69638 37.1414 2.67365 36.6982H3.69638C3.73615 37.0931 3.91513 37.4198 4.23331 37.6784C4.55433 37.934 4.93786 38.0619 5.38388 38.0619C5.74183 38.0619 6.06002 37.9781 6.33843 37.8105C6.61968 37.6428 6.83985 37.4127 6.99894 37.1201C7.16087 36.8247 7.24183 36.4909 7.24183 36.1187C7.24183 35.738 7.15803 35.3985 6.99041 35.1002C6.82564 34.7991 6.59837 34.5619 6.3086 34.3886C6.01882 34.2153 5.68786 34.1272 5.3157 34.1244C5.04865 34.1215 4.7745 34.1627 4.49325 34.248C4.212 34.3303 3.98047 34.4369 3.79865 34.5676L2.81002 34.4482L3.33843 30.1528H7.87252V31.0903H4.22479L3.91797 33.6642H3.96911C4.14808 33.5221 4.37252 33.4042 4.6424 33.3105C4.91229 33.2167 5.19354 33.1698 5.48615 33.1698C6.02024 33.1698 6.4961 33.2977 6.91371 33.5534C7.33416 33.8062 7.66371 34.1528 7.90235 34.5931C8.14382 35.0335 8.26456 35.5363 8.26456 36.1017C8.26456 36.6585 8.13956 37.1556 7.88956 37.5931C7.6424 38.0278 7.30149 38.3715 6.86683 38.6244C6.43218 38.8744 5.93786 38.9994 5.38388 38.9994ZM5.30398 53.9994C4.66193 53.9994 4.11506 53.8247 3.66335 53.4752C3.21165 53.123 2.86648 52.613 2.62784 51.9454C2.38921 51.275 2.26989 50.4653 2.26989 49.5164C2.26989 48.5732 2.38921 47.7678 2.62784 47.1002C2.86932 46.4298 3.21591 45.9184 3.66762 45.5661C4.12216 45.211 4.66762 45.0335 5.30398 45.0335C5.94034 45.0335 6.48438 45.211 6.93608 45.5661C7.39063 45.9184 7.73722 46.4298 7.97585 47.1002C8.21733 47.7678 8.33807 48.5732 8.33807 49.5164C8.33807 50.4653 8.21875 51.275 7.98012 51.9454C7.74148 52.613 7.39631 53.123 6.9446 53.4752C6.4929 53.8247 5.94602 53.9994 5.30398 53.9994ZM5.30398 53.0619C5.94034 53.0619 6.43466 52.7551 6.78693 52.1414C7.13921 51.5278 7.31534 50.6528 7.31534 49.5164C7.31534 48.7607 7.23438 48.1173 7.07245 47.586C6.91335 47.0548 6.68324 46.65 6.3821 46.3715C6.08381 46.0931 5.72443 45.9539 5.30398 45.9539C4.6733 45.9539 4.1804 46.265 3.82529 46.8872C3.47017 47.5065 3.29262 48.3829 3.29262 49.5164C3.29262 50.2721 3.37216 50.9142 3.53125 51.4426C3.69034 51.971 3.91904 52.373 4.21733 52.6485C4.51847 52.9241 4.88068 53.0619 5.30398 53.0619Z" fill="black"/>
<path d="M9.89221 1.80005H10.8982" stroke="black"/>
<path d="M7.44739 2.26308V10.9904H6.39057V3.37104H6.33944L4.20876 4.78581V3.71195L6.39057 2.26308H7.44739ZM5.30393 26.1097C4.66188 26.1097 4.11501 25.935 3.6633 25.5855C3.2116 25.2333 2.86643 24.7233 2.62779 24.0557C2.38915 23.3852 2.26984 22.5756 2.26984 21.6267C2.26984 20.6835 2.38915 19.8781 2.62779 19.2105C2.86927 18.5401 3.21586 18.0287 3.66756 17.6764C4.12211 17.3213 4.66756 17.1438 5.30393 17.1438C5.94029 17.1438 6.48432 17.3213 6.93603 17.6764C7.39057 18.0287 7.73716 18.5401 7.9758 19.2105C8.21728 19.8781 8.33802 20.6835 8.33802 21.6267C8.33802 22.5756 8.2187 23.3852 7.98006 24.0557C7.74143 24.7233 7.39626 25.2333 6.94455 25.5855C6.49285 25.935 5.94597 26.1097 5.30393 26.1097ZM5.30393 25.1722C5.94029 25.1722 6.43461 24.8654 6.78688 24.2517C7.13915 23.6381 7.31529 22.7631 7.31529 21.6267C7.31529 20.871 7.23432 20.2276 7.07239 19.6963C6.9133 19.1651 6.68319 18.7602 6.38205 18.4818C6.08376 18.2034 5.72438 18.0642 5.30393 18.0642C4.67324 18.0642 4.18035 18.3753 3.82523 18.9975C3.47012 19.6168 3.29256 20.4932 3.29256 21.6267C3.29256 22.3824 3.37211 23.0244 3.5312 23.5529C3.69029 24.0813 3.91898 24.4833 4.21728 24.7588C4.51841 25.0344 4.88063 25.1722 5.30393 25.1722ZM5.30393 41.1097C4.66188 41.1097 4.11501 40.935 3.6633 40.5855C3.2116 40.2333 2.86643 39.7233 2.62779 39.0557C2.38915 38.3852 2.26984 37.5756 2.26984 36.6267C2.26984 35.6835 2.38915 34.8781 2.62779 34.2105C2.86927 33.5401 3.21586 33.0287 3.66756 32.6764C4.12211 32.3213 4.66756 32.1438 5.30393 32.1438C5.94029 32.1438 6.48432 32.3213 6.93603 32.6764C7.39057 33.0287 7.73716 33.5401 7.9758 34.2105C8.21728 34.8781 8.33802 35.6835 8.33802 36.6267C8.33802 37.5756 8.2187 38.3852 7.98006 39.0557C7.74143 39.7233 7.39626 40.2333 6.94455 40.5855C6.49285 40.935 5.94597 41.1097 5.30393 41.1097ZM5.30393 40.1722C5.94029 40.1722 6.43461 39.8654 6.78688 39.2517C7.13915 38.6381 7.31529 37.7631 7.31529 36.6267C7.31529 35.871 7.23432 35.2276 7.07239 34.6963C6.9133 34.1651 6.68319 33.7602 6.38205 33.4818C6.08376 33.2034 5.72438 33.0642 5.30393 33.0642C4.67324 33.0642 4.18035 33.3753 3.82523 33.9975C3.47012 34.6168 3.29256 35.4932 3.29256 36.6267C3.29256 37.3824 3.37211 38.0244 3.5312 38.5529C3.69029 39.0813 3.91898 39.4833 4.21728 39.7588C4.51841 40.0344 4.88063 40.1722 5.30393 40.1722ZM5.30393 56.1097C4.66188 56.1097 4.11501 55.935 3.6633 55.5855C3.2116 55.2333 2.86643 54.7233 2.62779 54.0557C2.38915 53.3852 2.26984 52.5756 2.26984 51.6267C2.26984 50.6835 2.38915 49.8781 2.62779 49.2105C2.86927 48.5401 3.21586 48.0287 3.66756 47.6764C4.12211 47.3213 4.66756 47.1438 5.30393 47.1438C5.94029 47.1438 6.48432 47.3213 6.93603 47.6764C7.39057 48.0287 7.73716 48.5401 7.9758 49.2105C8.21728 49.8781 8.33802 50.6835 8.33802 51.6267C8.33802 52.5756 8.2187 53.3852 7.98006 54.0557C7.74143 54.7233 7.39626 55.2333 6.94455 55.5855C6.49285 55.935 5.94597 56.1097 5.30393 56.1097ZM5.30393 55.1722C5.94029 55.1722 6.43461 54.8654 6.78688 54.2517C7.13915 53.6381 7.31529 52.7631 7.31529 51.6267C7.31529 50.871 7.23432 50.2276 7.07239 49.6963C6.9133 49.1651 6.68319 48.7602 6.38205 48.4818C6.08376 48.2034 5.72438 48.0642 5.30393 48.0642C4.67324 48.0642 4.18035 48.3753 3.82523 48.9975C3.47012 49.6168 3.29256 50.4932 3.29256 51.6267C3.29256 52.3824 3.37211 53.0244 3.5312 53.5529C3.69029 54.0813 3.91898 54.4833 4.21728 54.7588C4.51841 55.0344 4.88063 55.1722 5.30393 55.1722Z" fill="black"/>
<path d="M10.8982 59.4H111.162" stroke="#CCCCCC"/>
<path d="M10.8982 45.0001H111.162" stroke="#CCCCCC"/>
<path d="M10.8982 30.6H111.162" stroke="#CCCCCC"/>
<path d="M10.8982 16.2001H111.162" stroke="#CCCCCC"/>
<path d="M10.8982 1.80005H111.162" stroke="#CCCCCC"/>
<path d="M10.8982 1.80005V59.4" stroke="#CCCCCC"/>
<path d="M35.9641 1.80005V59.4" stroke="#CCCCCC"/>
<path d="M61.0299 1.80005V59.4" stroke="#CCCCCC"/>
<path d="M86.0958 1.80005V59.4" stroke="#CCCCCC"/>
<path d="M111.162 1.80005V59.4" stroke="#CCCCCC"/>
<path d="M27.7405 47.9376C27.7405 48.1067 27.725 48.2742 27.6948 48.4304C27.6647 48.5867 27.6205 48.7287 27.5648 48.8483C27.5091 48.9679 27.443 49.0627 27.3702 49.1274C27.2975 49.1922 27.2195 49.2255 27.1407 49.2255C27.0619 49.2255 26.9839 49.1922 26.9112 49.1274C26.8384 49.0627 26.7723 48.9679 26.7166 48.8483C26.6609 48.7287 26.6167 48.5867 26.5866 48.4304C26.5564 48.2742 26.5409 48.1067 26.5409 47.9376C26.5409 47.7685 26.5564 47.601 26.5866 47.4447C26.6167 47.2885 26.6609 47.1465 26.7166 47.0269C26.7723 46.9073 26.8384 46.8125 26.9112 46.7478C26.9839 46.683 27.0619 46.6497 27.1407 46.6497C27.2195 46.6497 27.2975 46.683 27.3702 46.7478C27.443 46.8125 27.5091 46.9073 27.5648 47.0269C27.6205 47.1465 27.6647 47.2885 27.6948 47.4447C27.725 47.601 27.7405 47.7685 27.7405 47.9376Z" fill="#F279B4"/>
<path d="M47.9583 34.1136C47.9583 34.2285 47.9477 34.3423 47.9273 34.4485C47.9068 34.5546 47.8768 34.6511 47.8389 34.7323C47.8011 34.8136 47.7562 34.878 47.7067 34.922C47.6573 34.966 47.6043 34.9886 47.5508 34.9886C47.4973 34.9886 47.4443 34.966 47.3949 34.922C47.3454 34.878 47.3005 34.8136 47.2627 34.7323C47.2248 34.6511 47.1948 34.5546 47.1743 34.4485C47.1539 34.3423 47.1433 34.2285 47.1433 34.1136C47.1433 33.9988 47.1539 33.885 47.1743 33.7788C47.1948 33.6727 47.2248 33.5762 47.2627 33.495C47.3005 33.4137 47.3454 33.3493 47.3949 33.3053C47.4443 33.2613 47.4973 33.2387 47.5508 33.2387C47.6043 33.2387 47.6573 33.2613 47.7067 33.3053C47.7562 33.3493 47.8011 33.4137 47.8389 33.495C47.8768 33.5762 47.9068 33.6727 47.9273 33.7788C47.9477 33.885 47.9583 33.9988 47.9583 34.1136Z" fill="#F279B4"/>
<path d="M17.414 40.0464C17.414 40.2281 17.3973 40.408 17.3649 40.5758C17.3325 40.7437 17.2851 40.8962 17.2253 41.0246C17.1654 41.1531 17.0944 41.255 17.0162 41.3245C16.9381 41.394 16.8543 41.4298 16.7697 41.4298C16.6851 41.4298 16.6013 41.394 16.5231 41.3245C16.4449 41.255 16.3739 41.1531 16.3141 41.0246C16.2542 40.8962 16.2068 40.7437 16.1744 40.5758C16.142 40.408 16.1254 40.2281 16.1254 40.0464C16.1254 39.8648 16.142 39.6849 16.1744 39.517C16.2068 39.3492 16.2542 39.1967 16.3141 39.0682C16.3739 38.9398 16.4449 38.8379 16.5231 38.7683C16.6013 38.6988 16.6851 38.663 16.7697 38.663C16.8543 38.663 16.9381 38.6988 17.0162 38.7683C17.0944 38.8379 17.1654 38.9398 17.2253 39.0682C17.2851 39.1967 17.3325 39.3492 17.3649 39.517C17.3973 39.6849 17.414 39.8648 17.414 40.0464Z" fill="#F279B4"/>
<path d="M67.3054 57.0384C67.3054 57.5456 67.2116 58.0321 67.0446 58.3907C66.8775 58.7494 66.651 58.9509 66.4147 58.9509C66.1785 58.9509 65.952 58.7494 65.7849 58.3907C65.6179 58.0321 65.524 57.5456 65.524 57.0384C65.524 56.5312 65.6179 56.0448 65.7849 55.6861C65.952 55.3275 66.1785 55.126 66.4147 55.126C66.651 55.126 66.8775 55.3275 67.0446 55.6861C67.2116 56.0448 67.3054 56.5312 67.3054 57.0384Z" fill="#F279B4"/>
<path d="M23.2692 58.7088C23.2692 58.8801 23.2535 59.0497 23.223 59.2079C23.1925 59.3662 23.1477 59.51 23.0913 59.6311C23.0349 59.7522 22.9679 59.8483 22.8942 59.9138C22.8205 59.9794 22.7415 60.0131 22.6618 60.0131C22.582 60.0131 22.503 59.9794 22.4293 59.9138C22.3556 59.8483 22.2886 59.7522 22.2322 59.6311C22.1758 59.51 22.1311 59.3662 22.1006 59.2079C22.07 59.0497 22.0543 58.8801 22.0543 58.7088C22.0543 58.5375 22.07 58.3679 22.1006 58.2097C22.1311 58.0515 22.1758 57.9077 22.2322 57.7866C22.2886 57.6654 22.3556 57.5694 22.4293 57.5038C22.503 57.4383 22.582 57.4045 22.6618 57.4045C22.7415 57.4045 22.8205 57.4383 22.8942 57.5038C22.9679 57.5694 23.0349 57.6654 23.0913 57.7866C23.1477 57.9077 23.1925 58.0515 23.223 58.2097C23.2535 58.3679 23.2692 58.5375 23.2692 58.7088Z" fill="#F279B4"/>
<path d="M32.3014 6.52322C32.3014 6.99053 32.2149 7.4387 32.061 7.76913C31.9071 8.09957 31.6984 8.28521 31.4808 8.28521C31.2631 8.28521 31.0544 8.09957 30.9005 7.76913C30.7466 7.4387 30.6602 6.99053 30.6602 6.52322C30.6602 6.05591 30.7466 5.60774 30.9005 5.27731C31.0544 4.94687 31.2631 4.76123 31.4808 4.76123C31.6984 4.76123 31.9071 4.94687 32.061 5.27731C32.2149 5.60774 32.3014 6.05591 32.3014 6.52322Z" fill="#F279B4"/>
<path d="M62.9503 53.5248C62.9503 53.923 62.8767 54.3049 62.7455 54.5865C62.6144 54.868 62.4366 55.0262 62.2511 55.0262C62.0657 55.0262 61.8878 54.868 61.7567 54.5865C61.6255 54.3049 61.5519 53.923 61.5519 53.5248C61.5519 53.1267 61.6255 52.7448 61.7567 52.4632C61.8878 52.1817 62.0657 52.0235 62.2511 52.0235C62.4366 52.0235 62.6144 52.1817 62.7455 52.4632C62.8767 52.7448 62.9503 53.1267 62.9503 53.5248Z" fill="#F279B4"/>
<path d="M44.7129 45.9792C44.7129 46.2527 44.6623 46.515 44.5722 46.7084C44.4822 46.9017 44.36 47.0104 44.2327 47.0104C44.1053 47.0104 43.9832 46.9017 43.8931 46.7084C43.803 46.515 43.7524 46.2527 43.7524 45.9792C43.7524 45.7058 43.803 45.4435 43.8931 45.2501C43.9832 45.0568 44.1053 44.9481 44.2327 44.9481C44.36 44.9481 44.4822 45.0568 44.5722 45.2501C44.6623 45.4435 44.7129 45.7058 44.7129 45.9792Z" fill="#F279B4"/>
<path d="M33.6009 53.4096C33.6009 53.6763 33.5764 53.9405 33.5289 54.1869C33.4813 54.4333 33.4117 54.6572 33.3238 54.8458C33.236 55.0344 33.1317 55.184 33.0169 55.2861C32.9022 55.3882 32.7792 55.4407 32.6549 55.4407C32.5307 55.4407 32.4077 55.3882 32.2929 55.2861C32.1782 55.184 32.0739 55.0344 31.986 54.8458C31.8982 54.6572 31.8285 54.4333 31.781 54.1869C31.7335 53.9405 31.709 53.6763 31.709 53.4096C31.709 53.1429 31.7335 52.8788 31.781 52.6324C31.8285 52.3859 31.8982 52.162 31.986 51.9734C32.0739 51.7848 32.1782 51.6352 32.2929 51.5331C32.4077 51.4311 32.5307 51.3785 32.6549 51.3785C32.7792 51.3785 32.9022 51.4311 33.0169 51.5331C33.1317 51.6352 33.236 51.7848 33.3238 51.9734C33.4117 52.162 33.4813 52.3859 33.5289 52.6324C33.5764 52.8788 33.6009 53.1429 33.6009 53.4096Z" fill="#F279B4"/>
<path d="M87.9698 36.9936C87.9698 37.1159 87.9472 37.2332 87.9069 37.3197C87.8666 37.4062 87.812 37.4547 87.7551 37.4547C87.6981 37.4547 87.6435 37.4062 87.6032 37.3197C87.5629 37.2332 87.5403 37.1159 87.5403 36.9936C87.5403 36.8713 87.5629 36.754 87.6032 36.6675C87.6435 36.5811 87.6981 36.5325 87.7551 36.5325C87.812 36.5325 87.8666 36.5811 87.9069 36.6675C87.9472 36.754 87.9698 36.8713 87.9698 36.9936Z" fill="#F279B4"/>
<path d="M58.436 21.96C58.436 22.4846 58.3389 22.9878 58.1662 23.3587C57.9934 23.7297 57.7591 23.9381 57.5148 23.9381C57.2704 23.9381 57.0361 23.7297 56.8633 23.3587C56.6906 22.9878 56.5935 22.4846 56.5935 21.96C56.5935 21.4354 56.6906 20.9323 56.8633 20.5613C57.0361 20.1904 57.2704 19.982 57.5148 19.982C57.7591 19.982 57.9934 20.1904 58.1662 20.5613C58.3389 20.9323 58.436 21.4354 58.436 21.96Z" fill="#EB663F"/>
<path d="M54.6623 11.016C54.6623 11.4289 54.5859 11.825 54.4499 12.117C54.3139 12.4089 54.1295 12.573 53.9372 12.573C53.7448 12.573 53.5604 12.4089 53.4244 12.117C53.2884 11.825 53.212 11.4289 53.212 11.016C53.212 10.6031 53.2884 10.2071 53.4244 9.91507C53.5604 9.62308 53.7448 9.45905 53.9372 9.45905C54.1295 9.45905 54.3139 9.62308 54.4499 9.91507C54.5859 10.2071 54.6623 10.6031 54.6623 11.016Z" fill="#EB663F"/>
<path d="M90.8189 58.3056C90.8189 58.75 90.7367 59.1761 90.5903 59.4903C90.444 59.8045 90.2455 59.981 90.0386 59.981C89.8316 59.981 89.6332 59.8045 89.4868 59.4903C89.3405 59.1761 89.2583 58.75 89.2583 58.3056C89.2583 57.8613 89.3405 57.4352 89.4868 57.121C89.6332 56.8068 89.8316 56.6302 90.0386 56.6302C90.2455 56.6302 90.444 56.8068 90.5903 57.121C90.7367 57.4352 90.8189 57.8613 90.8189 58.3056Z" fill="#EB663F"/>
<path d="M32.0723 26.6832C32.0723 26.8172 32.0475 26.9457 32.0034 27.0404C31.9593 27.1352 31.8995 27.1884 31.8371 27.1884C31.7747 27.1884 31.7148 27.1352 31.6707 27.0404C31.6266 26.9457 31.6018 26.8172 31.6018 26.6832C31.6018 26.5493 31.6266 26.4208 31.6707 26.3261C31.7148 26.2313 31.7747 26.1781 31.8371 26.1781C31.8995 26.1781 31.9593 26.2313 32.0034 26.3261C32.0475 26.4208 32.0723 26.5493 32.0723 26.6832Z" fill="#EB663F"/>
<path d="M17.3648 56.9232C17.3648 57.2982 17.2954 57.6578 17.1719 57.9229C17.0484 58.1881 16.8809 58.337 16.7063 58.337C16.5317 58.337 16.3642 58.1881 16.2407 57.9229C16.1172 57.6578 16.0479 57.2982 16.0479 56.9232C16.0479 56.5482 16.1172 56.1886 16.2407 55.9235C16.3642 55.6584 16.5317 55.5094 16.7063 55.5094C16.8809 55.5094 17.0484 55.6584 17.1719 55.9235C17.2954 56.1886 17.3648 56.5482 17.3648 56.9232Z" fill="#EB663F"/>
<path d="M87.9239 10.6128C87.9239 11.0605 87.8411 11.4899 87.6936 11.8064C87.5462 12.123 87.3462 12.3009 87.1377 12.3009C86.9292 12.3009 86.7293 12.123 86.5818 11.8064C86.4344 11.4899 86.3516 11.0605 86.3516 10.6128C86.3516 10.1651 86.4344 9.73578 86.5818 9.41922C86.7293 9.10265 86.9292 8.9248 87.1377 8.9248C87.3462 8.9248 87.5462 9.10265 87.6936 9.41922C87.8411 9.73578 87.9239 10.1651 87.9239 10.6128Z" fill="#EB663F"/>
<path d="M39.9863 36.4752C39.9863 36.8918 39.9092 37.2912 39.772 37.5858C39.6348 37.8803 39.4488 38.0458 39.2548 38.0458C39.0608 38.0458 38.8747 37.8803 38.7376 37.5858C38.6004 37.2912 38.5233 36.8918 38.5233 36.4752C38.5233 36.0587 38.6004 35.6592 38.7376 35.3647C38.8747 35.0701 39.0608 34.9047 39.2548 34.9047C39.4488 34.9047 39.6348 35.0701 39.772 35.3647C39.9092 35.6592 39.9863 36.0587 39.9863 36.4752Z" fill="#EB663F"/>
<path d="M38.3758 13.0896C38.3758 13.2236 38.351 13.3521 38.3069 13.4468C38.2628 13.5415 38.2029 13.5948 38.1405 13.5948C38.0781 13.5948 38.0183 13.5415 37.9742 13.4468C37.9301 13.3521 37.9053 13.2236 37.9053 13.0896C37.9053 12.9556 37.9301 12.8272 37.9742 12.7324C38.0183 12.6377 38.0781 12.5845 38.1405 12.5845C38.2029 12.5845 38.2628 12.6377 38.3069 12.7324C38.351 12.8272 38.3758 12.9556 38.3758 13.0896Z" fill="#EB663F"/>
<path d="M44.7494 21.8448C44.7494 22.2198 44.68 22.5794 44.5566 22.8446C44.4331 23.1097 44.2656 23.2586 44.091 23.2586C43.9163 23.2586 43.7488 23.1097 43.6254 22.8446C43.5019 22.5794 43.4325 22.2198 43.4325 21.8448C43.4325 21.4699 43.5019 21.1103 43.6254 20.8451C43.7488 20.58 43.9163 20.431 44.091 20.431C44.2656 20.431 44.4331 20.58 44.5566 20.8451C44.68 21.1103 44.7494 21.4699 44.7494 21.8448Z" fill="#EB663F"/>
</g>
<defs>
<clipPath id="clip0_561_194">
<rect width="112" height="72" fill="white"/>
</clipPath>
</defs>
</svg>
